<?xml version="1.0" encoding="utf-8"?>
<!-- Generator: Adobe Illustrator 15.0.2, SVG Export Plug-In . SVG Version: 6.00 Build 0)  -->
<!DOCTYPE svg PUBLIC "-//W3C//DTD SVG 1.1//EN" "http://www.w3.org/Graphics/SVG/1.1/DTD/svg11.dtd">
<svg version="1.1" id="Layer_1" xmlns="http://www.w3.org/2000/svg" xmlns:xlink="http://www.w3.org/1999/xlink" x="0px" y="0px"
	 width="458px" height="93.333px" viewBox="0 0 458 93.333" enable-background="new 0 0 458 93.333" xml:space="preserve">
<metadata><?xpacket begin="﻿" id="W5M0MpCehiHzreSzNTczkc9d"?>
<x:xmpmeta xmlns:x="adobe:ns:meta/" x:xmptk="Adobe XMP Core 5.0-c060 61.134777, 2010/02/12-17:32:00        ">
   <rdf:RDF xmlns:rdf="http://www.w3.org/1999/02/22-rdf-syntax-ns#">
      <rdf:Description rdf:about=""
            xmlns:dc="http://purl.org/dc/elements/1.1/">
         <dc:format>image/svg+xml</dc:format>
         <dc:title>
            <rdf:Alt>
               <rdf:li xml:lang="x-default">Print</rdf:li>
            </rdf:Alt>
         </dc:title>
      </rdf:Description>
      <rdf:Description rdf:about=""
            xmlns:xmp="http://ns.adobe.com/xap/1.0/"
            xmlns:xmpGImg="http://ns.adobe.com/xap/1.0/g/img/">
         <xmp:MetadataDate>2018-09-06T09:24:21-06:00</xmp:MetadataDate>
         <xmp:ModifyDate>2018-09-06T09:24:21-06:00</xmp:ModifyDate>
         <xmp:CreateDate>2018-09-06T09:24:20-06:00</xmp:CreateDate>
         <xmp:CreatorTool>Adobe Illustrator CS5</xmp:CreatorTool>
         <xmp:Thumbnails>
            <rdf:Alt>
               <rdf:li rdf:parseType="Resource">
                  <xmpGImg:width>256</xmpGImg:width>
                  <xmpGImg:height>24</xmpGImg:height>
                  <xmpGImg:format>JPEG</xmpGImg:format>
                  <xmpGImg:image>/9j/4AAQSkZJRgABAgEASABIAAD/7QAsUGhvdG9zaG9wIDMuMAA4QklNA+0AAAAAABAASAAAAAEA&#xA;AQBIAAAAAQAB/+4ADkFkb2JlAGTAAAAAAf/bAIQABgQEBAUEBgUFBgkGBQYJCwgGBggLDAoKCwoK&#xA;DBAMDAwMDAwQDA4PEA8ODBMTFBQTExwbGxscHx8fHx8fHx8fHwEHBwcNDA0YEBAYGhURFRofHx8f&#xA;Hx8fHx8fHx8fHx8fHx8fHx8fHx8fHx8fHx8fHx8fHx8fHx8fHx8fHx8fHx8f/8AAEQgAGAEAAwER&#xA;AAIRAQMRAf/EAaIAAAAHAQEBAQEAAAAAAAAAAAQFAwIGAQAHCAkKCwEAAgIDAQEBAQEAAAAAAAAA&#xA;AQACAwQFBgcICQoLEAACAQMDAgQCBgcDBAIGAnMBAgMRBAAFIRIxQVEGE2EicYEUMpGhBxWxQiPB&#xA;UtHhMxZi8CRygvElQzRTkqKyY3PCNUQnk6OzNhdUZHTD0uIIJoMJChgZhJRFRqS0VtNVKBry4/PE&#xA;1OT0ZXWFlaW1xdXl9WZ2hpamtsbW5vY3R1dnd4eXp7fH1+f3OEhYaHiImKi4yNjo+Ck5SVlpeYmZ&#xA;qbnJ2en5KjpKWmp6ipqqusra6voRAAICAQIDBQUEBQYECAMDbQEAAhEDBCESMUEFURNhIgZxgZEy&#xA;obHwFMHR4SNCFVJicvEzJDRDghaSUyWiY7LCB3PSNeJEgxdUkwgJChgZJjZFGidkdFU38qOzwygp&#xA;0+PzhJSktMTU5PRldYWVpbXF1eX1RlZmdoaWprbG1ub2R1dnd4eXp7fH1+f3OEhYaHiImKi4yNjo&#xA;+DlJWWl5iZmpucnZ6fkqOkpaanqKmqq6ytrq+v/aAAwDAQACEQMRAD8A9U4q7FVkk8MVPVkVK9OR&#xA;ArT540qz67Zf8tEf/Br/AFw0UWujuLeRuMcqOwFSFYE0+jGkqmBXYq7FXYq7FXYq7FXYq7FXYq7F&#xA;XYq7FXYq7FXYq7FXYq7FXYq7FXYq7FXYq7FXYq7FXYq7FXmn51M/1fSkV2UO04YKSG6JuKfy5k6b&#xA;q4+o6PHbsWNrco+r3V5CbiD6xG0PAW7J60sAcuzcg3qQPyFKU4+OZMZGy488YoHd6P8AkZ9XOuak&#xA;1tO08Btl4uzFv92DKdSdg2aYUS9mzDcx2KuxV2KuxV2KuxV2KuxV2KuxV2KuxV2KuxV2KuxV2Kux&#xA;V2KuxV2KuxV2KuxV2KuxV2KuxVgf5sWdpLY2VxdTJBFbNKxdzTqFNFHUn4dgN8vwyq2rLC3gFz5x&#xA;02fzlYxT6ZdyaXDZSabc6i8ElAfrk9ykiBFculJgv3np1vG1lhKN0Ht35R6dpEV7e3unXIuEuYVq&#xA;vNiy0bvGxrH06UGU5pWGWOFPQ/qdx/y3T/8AAwf9U8ovybad9TuP+W6f/gYP+qWN+S076ncf8t0/&#xA;/Awf9Usb8lp31O4/5bp/+Bg/6pY35LTvqdx/y3T/APAwf9Usb8lp31O4/wCW6f8A4GD/AKpY35LT&#xA;vqdx/wAt0/8AwMH/AFSxvyWl8VtMkgZruWVR1RhEAf8AgUU/jja0r4EuxV2KuxV2KuxV2KuxV2Ku&#xA;xV2KuxV2KuxV2KuxV2KuxV2Kv//Z</xmpGImg:image>
               </rdf:li>
            </rdf:Alt>
         </xmp:Thumbnails>
      </rdf:Description>
      <rdf:Description rdf:about=""
            xmlns:xmpMM="http://ns.adobe.com/xap/1.0/mm/"
            xmlns:stRef="http://ns.adobe.com/xap/1.0/sType/ResourceRef#"
            xmlns:stEvt="http://ns.adobe.com/xap/1.0/sType/ResourceEvent#">
         <xmpMM:InstanceID>xmp.iid:F77F11740720681188C6B6CD9AE539F3</xmpMM:InstanceID>
         <xmpMM:DocumentID>xmp.did:F77F11740720681188C6B6CD9AE539F3</xmpMM:DocumentID>
         <xmpMM:OriginalDocumentID>uuid:5D20892493BFDB11914A8590D31508C8</xmpMM:OriginalDocumentID>
         <xmpMM:RenditionClass>proof:pdf</xmpMM:RenditionClass>
         <xmpMM:DerivedFrom rdf:parseType="Resource">
            <stRef:instanceID>uuid:ae9148ef-3000-a144-9ee3-ddb3557e196e</stRef:instanceID>
            <stRef:documentID>xmp.did:8AF5709C0E20681188C6A12CE4B46A4D</stRef:documentID>
            <stRef:originalDocumentID>uuid:5D20892493BFDB11914A8590D31508C8</stRef:originalDocumentID>
            <stRef:renditionClass>proof:pdf</stRef:renditionClass>
         </xmpMM:DerivedFrom>
         <xmpMM:History>
            <rdf:Seq>
               <rdf:li rdf:parseType="Resource">
                  <stEvt:action>saved</stEvt:action>
                  <stEvt:instanceID>xmp.iid:F77F11740720681188C6B6CD9AE539F3</stEvt:instanceID>
                  <stEvt:when>2018-09-06T09:24:21-06:00</stEvt:when>
                  <stEvt:softwareAgent>Adobe Illustrator CS5</stEvt:softwareAgent>
                  <stEvt:changed>/</stEvt:changed>
               </rdf:li>
            </rdf:Seq>
         </xmpMM:History>
      </rdf:Description>
      <rdf:Description rdf:about=""
            xmlns:illustrator="http://ns.adobe.com/illustrator/1.0/">
         <illustrator:StartupProfile>Print</illustrator:StartupProfile>
      </rdf:Description>
      <rdf:Description rdf:about=""
            xmlns:xmpTPg="http://ns.adobe.com/xap/1.0/t/pg/"
            xmlns:stDim="http://ns.adobe.com/xap/1.0/sType/Dimensions#"
            xmlns:xmpG="http://ns.adobe.com/xap/1.0/g/">
         <xmpTPg:HasVisibleOverprint>False</xmpTPg:HasVisibleOverprint>
         <xmpTPg:HasVisibleTransparency>True</xmpTPg:HasVisibleTransparency>
         <xmpTPg:NPages>1</xmpTPg:NPages>
         <xmpTPg:MaxPageSize rdf:parseType="Resource">
            <stDim:w>6.361104</stDim:w>
            <stDim:h>1.296299</stDim:h>
            <stDim:unit>Inches</stDim:unit>
         </xmpTPg:MaxPageSize>
         <xmpTPg:PlateNames>
            <rdf:Seq>
               <rdf:li>Cyan</rdf:li>
               <rdf:li>Magenta</rdf:li>
               <rdf:li>Yellow</rdf:li>
               <rdf:li>Black</rdf:li>
            </rdf:Seq>
         </xmpTPg:PlateNames>
         <xmpTPg:SwatchGroups>
            <rdf:Seq>
               <rdf:li rdf:parseType="Resource">
                  <xmpG:groupName>Default Swatch Group</xmpG:groupName>
                  <xmpG:groupType>0</xmpG:groupType>
                  <xmpG:Colorants>
                     <rdf:Seq>
                        <rdf:li rdf:parseType="Resource">
                           <xmpG:swatchName>White</xmpG:swatchName>
                           <xmpG:mode>CMYK</xmpG:mode>
                           <xmpG:type>PROCESS</xmpG:type>
                           <xmpG:cyan>0.000000</xmpG:cyan>
                           <xmpG:magenta>0.000000</xmpG:magenta>
                           <xmpG:yellow>0.000000</xmpG:yellow>
                           <xmpG:black>0.000000</xmpG:black>
                        </rdf:li>
                        <rdf:li rdf:parseType="Resource">
                           <xmpG:swatchName>Black</xmpG:swatchName>
                           <xmpG:mode>CMYK</xmpG:mode>
                           <xmpG:type>PROCESS</xmpG:type>
                           <xmpG:cyan>0.000000</xmpG:cyan>
                           <xmpG:magenta>0.000000</xmpG:magenta>
                           <xmpG:yellow>0.000000</xmpG:yellow>
                           <xmpG:black>100.000000</xmpG:black>
                        </rdf:li>
                        <rdf:li rdf:parseType="Resource">
                           <xmpG:swatchName>CMYK Red</xmpG:swatchName>
                           <xmpG:mode>CMYK</xmpG:mode>
                           <xmpG:type>PROCESS</xmpG:type>
                           <xmpG:cyan>0.000000</xmpG:cyan>
                           <xmpG:magenta>100.000000</xmpG:magenta>
                           <xmpG:yellow>100.000000</xmpG:yellow>
                           <xmpG:black>0.000000</xmpG:black>
                        </rdf:li>
                        <rdf:li rdf:parseType="Resource">
                           <xmpG:swatchName>CMYK Yellow</xmpG:swatchName>
                           <xmpG:mode>CMYK</xmpG:mode>
                           <xmpG:type>PROCESS</xmpG:type>
                           <xmpG:cyan>0.000000</xmpG:cyan>
                           <xmpG:magenta>0.000000</xmpG:magenta>
                           <xmpG:yellow>100.000000</xmpG:yellow>
                           <xmpG:black>0.000000</xmpG:black>
                        </rdf:li>
                        <rdf:li rdf:parseType="Resource">
                           <xmpG:swatchName>CMYK Green</xmpG:swatchName>
                           <xmpG:mode>CMYK</xmpG:mode>
                           <xmpG:type>PROCESS</xmpG:type>
                           <xmpG:cyan>100.000000</xmpG:cyan>
                           <xmpG:magenta>0.000000</xmpG:magenta>
                           <xmpG:yellow>100.000000</xmpG:yellow>
                           <xmpG:black>0.000000</xmpG:black>
                        </rdf:li>
                        <rdf:li rdf:parseType="Resource">
                           <xmpG:swatchName>CMYK Cyan</xmpG:swatchName>
                           <xmpG:mode>CMYK</xmpG:mode>
                           <xmpG:type>PROCESS</xmpG:type>
                           <xmpG:cyan>100.000000</xmpG:cyan>
                           <xmpG:magenta>0.000000</xmpG:magenta>
                           <xmpG:yellow>0.000000</xmpG:yellow>
                           <xmpG:black>0.000000</xmpG:black>
                        </rdf:li>
                        <rdf:li rdf:parseType="Resource">
                           <xmpG:swatchName>CMYK Blue</xmpG:swatchName>
                           <xmpG:mode>CMYK</xmpG:mode>
                           <xmpG:type>PROCESS</xmpG:type>
                           <xmpG:cyan>100.000000</xmpG:cyan>
                           <xmpG:magenta>100.000000</xmpG:magenta>
                           <xmpG:yellow>0.000000</xmpG:yellow>
                           <xmpG:black>0.000000</xmpG:black>
                        </rdf:li>
                        <rdf:li rdf:parseType="Resource">
                           <xmpG:swatchName>CMYK Magenta</xmpG:swatchName>
                           <xmpG:mode>CMYK</xmpG:mode>
                           <xmpG:type>PROCESS</xmpG:type>
                           <xmpG:cyan>0.000000</xmpG:cyan>
                           <xmpG:magenta>100.000000</xmpG:magenta>
                           <xmpG:yellow>0.000000</xmpG:yellow>
                           <xmpG:black>0.000000</xmpG:black>
                        </rdf:li>
                        <rdf:li rdf:parseType="Resource">
                           <xmpG:swatchName>C=15 M=100 Y=90 K=10</xmpG:swatchName>
                           <xmpG:mode>CMYK</xmpG:mode>
                           <xmpG:type>PROCESS</xmpG:type>
                           <xmpG:cyan>14.999998</xmpG:cyan>
                           <xmpG:magenta>100.000000</xmpG:magenta>
                           <xmpG:yellow>90.000000</xmpG:yellow>
                           <xmpG:black>10.000002</xmpG:black>
                        </rdf:li>
                        <rdf:li rdf:parseType="Resource">
                           <xmpG:swatchName>C=0 M=90 Y=85 K=0</xmpG:swatchName>
                           <xmpG:mode>CMYK</xmpG:mode>
                           <xmpG:type>PROCESS</xmpG:type>
                           <xmpG:cyan>0.000000</xmpG:cyan>
                           <xmpG:magenta>90.000000</xmpG:magenta>
                           <xmpG:yellow>85.000000</xmpG:yellow>
                           <xmpG:black>0.000000</xmpG:black>
                        </rdf:li>
                        <rdf:li rdf:parseType="Resource">
                           <xmpG:swatchName>C=0 M=80 Y=95 K=0</xmpG:swatchName>
                           <xmpG:mode>CMYK</xmpG:mode>
                           <xmpG:type>PROCESS</xmpG:type>
                           <xmpG:cyan>0.000000</xmpG:cyan>
                           <xmpG:magenta>80.000000</xmpG:magenta>
                           <xmpG:yellow>95.000000</xmpG:yellow>
                           <xmpG:black>0.000000</xmpG:black>
                        </rdf:li>
                        <rdf:li rdf:parseType="Resource">
                           <xmpG:swatchName>C=0 M=50 Y=100 K=0</xmpG:swatchName>
                           <xmpG:mode>CMYK</xmpG:mode>
                           <xmpG:type>PROCESS</xmpG:type>
                           <xmpG:cyan>0.000000</xmpG:cyan>
                           <xmpG:magenta>50.000000</xmpG:magenta>
                           <xmpG:yellow>100.000000</xmpG:yellow>
                           <xmpG:black>0.000000</xmpG:black>
                        </rdf:li>
                        <rdf:li rdf:parseType="Resource">
                           <xmpG:swatchName>C=0 M=35 Y=85 K=0</xmpG:swatchName>
                           <xmpG:mode>CMYK</xmpG:mode>
                           <xmpG:type>PROCESS</xmpG:type>
                           <xmpG:cyan>0.000000</xmpG:cyan>
                           <xmpG:magenta>35.000004</xmpG:magenta>
                           <xmpG:yellow>85.000000</xmpG:yellow>
                           <xmpG:black>0.000000</xmpG:black>
                        </rdf:li>
                        <rdf:li rdf:parseType="Resource">
                           <xmpG:swatchName>C=5 M=0 Y=90 K=0</xmpG:swatchName>
                           <xmpG:mode>CMYK</xmpG:mode>
                           <xmpG:type>PROCESS</xmpG:type>
                           <xmpG:cyan>5.000001</xmpG:cyan>
                           <xmpG:magenta>0.000000</xmpG:magenta>
                           <xmpG:yellow>90.000000</xmpG:yellow>
                           <xmpG:black>0.000000</xmpG:black>
                        </rdf:li>
                        <rdf:li rdf:parseType="Resource">
                           <xmpG:swatchName>C=20 M=0 Y=100 K=0</xmpG:swatchName>
                           <xmpG:mode>CMYK</xmpG:mode>
                           <xmpG:type>PROCESS</xmpG:type>
                           <xmpG:cyan>19.999998</xmpG:cyan>
                           <xmpG:magenta>0.000000</xmpG:magenta>
                           <xmpG:yellow>100.000000</xmpG:yellow>
                           <xmpG:black>0.000000</xmpG:black>
                        </rdf:li>
                        <rdf:li rdf:parseType="Resource">
                           <xmpG:swatchName>C=50 M=0 Y=100 K=0</xmpG:swatchName>
                           <xmpG:mode>CMYK</xmpG:mode>
                           <xmpG:type>PROCESS</xmpG:type>
                           <xmpG:cyan>50.000000</xmpG:cyan>
                           <xmpG:magenta>0.000000</xmpG:magenta>
                           <xmpG:yellow>100.000000</xmpG:yellow>
                           <xmpG:black>0.000000</xmpG:black>
                        </rdf:li>
                        <rdf:li rdf:parseType="Resource">
                           <xmpG:swatchName>C=75 M=0 Y=100 K=0</xmpG:swatchName>
                           <xmpG:mode>CMYK</xmpG:mode>
                           <xmpG:type>PROCESS</xmpG:type>
                           <xmpG:cyan>75.000000</xmpG:cyan>
                           <xmpG:magenta>0.000000</xmpG:magenta>
                           <xmpG:yellow>100.000000</xmpG:yellow>
                           <xmpG:black>0.000000</xmpG:black>
                        </rdf:li>
                        <rdf:li rdf:parseType="Resource">
                           <xmpG:swatchName>C=85 M=10 Y=100 K=10</xmpG:swatchName>
                           <xmpG:mode>CMYK</xmpG:mode>
                           <xmpG:type>PROCESS</xmpG:type>
                           <xmpG:cyan>85.000000</xmpG:cyan>
                           <xmpG:magenta>10.000002</xmpG:magenta>
                           <xmpG:yellow>100.000000</xmpG:yellow>
                           <xmpG:black>10.000002</xmpG:black>
                        </rdf:li>
                        <rdf:li rdf:parseType="Resource">
                           <xmpG:swatchName>C=90 M=30 Y=95 K=30</xmpG:swatchName>
                           <xmpG:mode>CMYK</xmpG:mode>
                           <xmpG:type>PROCESS</xmpG:type>
                           <xmpG:cyan>90.000000</xmpG:cyan>
                           <xmpG:magenta>30.000002</xmpG:magenta>
                           <xmpG:yellow>95.000000</xmpG:yellow>
                           <xmpG:black>30.000002</xmpG:black>
                        </rdf:li>
                        <rdf:li rdf:parseType="Resource">
                           <xmpG:swatchName>C=75 M=0 Y=75 K=0</xmpG:swatchName>
                           <xmpG:mode>CMYK</xmpG:mode>
                           <xmpG:type>PROCESS</xmpG:type>
                           <xmpG:cyan>75.000000</xmpG:cyan>
                           <xmpG:magenta>0.000000</xmpG:magenta>
                           <xmpG:yellow>75.000000</xmpG:yellow>
                           <xmpG:black>0.000000</xmpG:black>
                        </rdf:li>
                        <rdf:li rdf:parseType="Resource">
                           <xmpG:swatchName>C=80 M=10 Y=45 K=0</xmpG:swatchName>
                           <xmpG:mode>CMYK</xmpG:mode>
                           <xmpG:type>PROCESS</xmpG:type>
                           <xmpG:cyan>80.000000</xmpG:cyan>
                           <xmpG:magenta>10.000002</xmpG:magenta>
                           <xmpG:yellow>45.000000</xmpG:yellow>
                           <xmpG:black>0.000000</xmpG:black>
                        </rdf:li>
                        <rdf:li rdf:parseType="Resource">
                           <xmpG:swatchName>C=70 M=15 Y=0 K=0</xmpG:swatchName>
                           <xmpG:mode>CMYK</xmpG:mode>
                           <xmpG:type>PROCESS</xmpG:type>
                           <xmpG:cyan>70.000000</xmpG:cyan>
                           <xmpG:magenta>14.999998</xmpG:magenta>
                           <xmpG:yellow>0.000000</xmpG:yellow>
                           <xmpG:black>0.000000</xmpG:black>
                        </rdf:li>
                        <rdf:li rdf:parseType="Resource">
                           <xmpG:swatchName>C=85 M=50 Y=0 K=0</xmpG:swatchName>
                           <xmpG:mode>CMYK</xmpG:mode>
                           <xmpG:type>PROCESS</xmpG:type>
                           <xmpG:cyan>85.000000</xmpG:cyan>
                           <xmpG:magenta>50.000000</xmpG:magenta>
                           <xmpG:yellow>0.000000</xmpG:yellow>
                           <xmpG:black>0.000000</xmpG:black>
                        </rdf:li>
                        <rdf:li rdf:parseType="Resource">
                           <xmpG:swatchName>C=100 M=95 Y=5 K=0</xmpG:swatchName>
                           <xmpG:mode>CMYK</xmpG:mode>
                           <xmpG:type>PROCESS</xmpG:type>
                           <xmpG:cyan>100.000000</xmpG:cyan>
                           <xmpG:magenta>95.000000</xmpG:magenta>
                           <xmpG:yellow>5.000001</xmpG:yellow>
                           <xmpG:black>0.000000</xmpG:black>
                        </rdf:li>
                        <rdf:li rdf:parseType="Resource">
                           <xmpG:swatchName>C=100 M=100 Y=25 K=25</xmpG:swatchName>
                           <xmpG:mode>CMYK</xmpG:mode>
                           <xmpG:type>PROCESS</xmpG:type>
                           <xmpG:cyan>100.000000</xmpG:cyan>
                           <xmpG:magenta>100.000000</xmpG:magenta>
                           <xmpG:yellow>25.000000</xmpG:yellow>
                           <xmpG:black>25.000000</xmpG:black>
                        </rdf:li>
                        <rdf:li rdf:parseType="Resource">
                           <xmpG:swatchName>C=75 M=100 Y=0 K=0</xmpG:swatchName>
                           <xmpG:mode>CMYK</xmpG:mode>
                           <xmpG:type>PROCESS</xmpG:type>
                           <xmpG:cyan>75.000000</xmpG:cyan>
                           <xmpG:magenta>100.000000</xmpG:magenta>
                           <xmpG:yellow>0.000000</xmpG:yellow>
                           <xmpG:black>0.000000</xmpG:black>
                        </rdf:li>
                        <rdf:li rdf:parseType="Resource">
                           <xmpG:swatchName>C=50 M=100 Y=0 K=0</xmpG:swatchName>
                           <xmpG:mode>CMYK</xmpG:mode>
                           <xmpG:type>PROCESS</xmpG:type>
                           <xmpG:cyan>50.000000</xmpG:cyan>
                           <xmpG:magenta>100.000000</xmpG:magenta>
                           <xmpG:yellow>0.000000</xmpG:yellow>
                           <xmpG:black>0.000000</xmpG:black>
                        </rdf:li>
                        <rdf:li rdf:parseType="Resource">
                           <xmpG:swatchName>C=35 M=100 Y=35 K=10</xmpG:swatchName>
                           <xmpG:mode>CMYK</xmpG:mode>
                           <xmpG:type>PROCESS</xmpG:type>
                           <xmpG:cyan>35.000004</xmpG:cyan>
                           <xmpG:magenta>100.000000</xmpG:magenta>
                           <xmpG:yellow>35.000004</xmpG:yellow>
                           <xmpG:black>10.000002</xmpG:black>
                        </rdf:li>
                        <rdf:li rdf:parseType="Resource">
                           <xmpG:swatchName>C=10 M=100 Y=50 K=0</xmpG:swatchName>
                           <xmpG:mode>CMYK</xmpG:mode>
                           <xmpG:type>PROCESS</xmpG:type>
                           <xmpG:cyan>10.000002</xmpG:cyan>
                           <xmpG:magenta>100.000000</xmpG:magenta>
                           <xmpG:yellow>50.000000</xmpG:yellow>
                           <xmpG:black>0.000000</xmpG:black>
                        </rdf:li>
                        <rdf:li rdf:parseType="Resource">
                           <xmpG:swatchName>C=0 M=95 Y=20 K=0</xmpG:swatchName>
                           <xmpG:mode>CMYK</xmpG:mode>
                           <xmpG:type>PROCESS</xmpG:type>
                           <xmpG:cyan>0.000000</xmpG:cyan>
                           <xmpG:magenta>95.000000</xmpG:magenta>
                           <xmpG:yellow>19.999998</xmpG:yellow>
                           <xmpG:black>0.000000</xmpG:black>
                        </rdf:li>
                        <rdf:li rdf:parseType="Resource">
                           <xmpG:swatchName>C=25 M=25 Y=40 K=0</xmpG:swatchName>
                           <xmpG:mode>CMYK</xmpG:mode>
                           <xmpG:type>PROCESS</xmpG:type>
                           <xmpG:cyan>25.000000</xmpG:cyan>
                           <xmpG:magenta>25.000000</xmpG:magenta>
                           <xmpG:yellow>39.999996</xmpG:yellow>
                           <xmpG:black>0.000000</xmpG:black>
                        </rdf:li>
                        <rdf:li rdf:parseType="Resource">
                           <xmpG:swatchName>C=40 M=45 Y=50 K=5</xmpG:swatchName>
                           <xmpG:mode>CMYK</xmpG:mode>
                           <xmpG:type>PROCESS</xmpG:type>
                           <xmpG:cyan>39.999996</xmpG:cyan>
                           <xmpG:magenta>45.000000</xmpG:magenta>
                           <xmpG:yellow>50.000000</xmpG:yellow>
                           <xmpG:black>5.000001</xmpG:black>
                        </rdf:li>
                        <rdf:li rdf:parseType="Resource">
                           <xmpG:swatchName>C=50 M=50 Y=60 K=25</xmpG:swatchName>
                           <xmpG:mode>CMYK</xmpG:mode>
                           <xmpG:type>PROCESS</xmpG:type>
                           <xmpG:cyan>50.000000</xmpG:cyan>
                           <xmpG:magenta>50.000000</xmpG:magenta>
                           <xmpG:yellow>60.000004</xmpG:yellow>
                           <xmpG:black>25.000000</xmpG:black>
                        </rdf:li>
                        <rdf:li rdf:parseType="Resource">
                           <xmpG:swatchName>C=55 M=60 Y=65 K=40</xmpG:swatchName>
                           <xmpG:mode>CMYK</xmpG:mode>
                           <xmpG:type>PROCESS</xmpG:type>
                           <xmpG:cyan>55.000000</xmpG:cyan>
                           <xmpG:magenta>60.000004</xmpG:magenta>
                           <xmpG:yellow>65.000000</xmpG:yellow>
                           <xmpG:black>39.999996</xmpG:black>
                        </rdf:li>
                        <rdf:li rdf:parseType="Resource">
                           <xmpG:swatchName>C=25 M=40 Y=65 K=0</xmpG:swatchName>
                           <xmpG:mode>CMYK</xmpG:mode>
                           <xmpG:type>PROCESS</xmpG:type>
                           <xmpG:cyan>25.000000</xmpG:cyan>
                           <xmpG:magenta>39.999996</xmpG:magenta>
                           <xmpG:yellow>65.000000</xmpG:yellow>
                           <xmpG:black>0.000000</xmpG:black>
                        </rdf:li>
                        <rdf:li rdf:parseType="Resource">
                           <xmpG:swatchName>C=30 M=50 Y=75 K=10</xmpG:swatchName>
                           <xmpG:mode>CMYK</xmpG:mode>
                           <xmpG:type>PROCESS</xmpG:type>
                           <xmpG:cyan>30.000002</xmpG:cyan>
                           <xmpG:magenta>50.000000</xmpG:magenta>
                           <xmpG:yellow>75.000000</xmpG:yellow>
                           <xmpG:black>10.000002</xmpG:black>
                        </rdf:li>
                        <rdf:li rdf:parseType="Resource">
                           <xmpG:swatchName>C=35 M=60 Y=80 K=25</xmpG:swatchName>
                           <xmpG:mode>CMYK</xmpG:mode>
                           <xmpG:type>PROCESS</xmpG:type>
                           <xmpG:cyan>35.000004</xmpG:cyan>
                           <xmpG:magenta>60.000004</xmpG:magenta>
                           <xmpG:yellow>80.000000</xmpG:yellow>
                           <xmpG:black>25.000000</xmpG:black>
                        </rdf:li>
                        <rdf:li rdf:parseType="Resource">
                           <xmpG:swatchName>C=40 M=65 Y=90 K=35</xmpG:swatchName>
                           <xmpG:mode>CMYK</xmpG:mode>
                           <xmpG:type>PROCESS</xmpG:type>
                           <xmpG:cyan>39.999996</xmpG:cyan>
                           <xmpG:magenta>65.000000</xmpG:magenta>
                           <xmpG:yellow>90.000000</xmpG:yellow>
                           <xmpG:black>35.000004</xmpG:black>
                        </rdf:li>
                        <rdf:li rdf:parseType="Resource">
                           <xmpG:swatchName>C=40 M=70 Y=100 K=50</xmpG:swatchName>
                           <xmpG:mode>CMYK</xmpG:mode>
                           <xmpG:type>PROCESS</xmpG:type>
                           <xmpG:cyan>39.999996</xmpG:cyan>
                           <xmpG:magenta>70.000000</xmpG:magenta>
                           <xmpG:yellow>100.000000</xmpG:yellow>
                           <xmpG:black>50.000000</xmpG:black>
                        </rdf:li>
                        <rdf:li rdf:parseType="Resource">
                           <xmpG:swatchName>C=50 M=70 Y=80 K=70</xmpG:swatchName>
                           <xmpG:mode>CMYK</xmpG:mode>
                           <xmpG:type>PROCESS</xmpG:type>
                           <xmpG:cyan>50.000000</xmpG:cyan>
                           <xmpG:magenta>70.000000</xmpG:magenta>
                           <xmpG:yellow>80.000000</xmpG:yellow>
                           <xmpG:black>70.000000</xmpG:black>
                        </rdf:li>
                     </rdf:Seq>
                  </xmpG:Colorants>
               </rdf:li>
               <rdf:li rdf:parseType="Resource">
                  <xmpG:groupName>Grays</xmpG:groupName>
                  <xmpG:groupType>1</xmpG:groupType>
                  <xmpG:Colorants>
                     <rdf:Seq>
                        <rdf:li rdf:parseType="Resource">
                           <xmpG:swatchName>C=0 M=0 Y=0 K=100</xmpG:swatchName>
                           <xmpG:mode>CMYK</xmpG:mode>
                           <xmpG:type>PROCESS</xmpG:type>
                           <xmpG:cyan>0.000000</xmpG:cyan>
                           <xmpG:magenta>0.000000</xmpG:magenta>
                           <xmpG:yellow>0.000000</xmpG:yellow>
                           <xmpG:black>100.000000</xmpG:black>
                        </rdf:li>
                        <rdf:li rdf:parseType="Resource">
                           <xmpG:swatchName>C=0 M=0 Y=0 K=90</xmpG:swatchName>
                           <xmpG:mode>CMYK</xmpG:mode>
                           <xmpG:type>PROCESS</xmpG:type>
                           <xmpG:cyan>0.000000</xmpG:cyan>
                           <xmpG:magenta>0.000000</xmpG:magenta>
                           <xmpG:yellow>0.000000</xmpG:yellow>
                           <xmpG:black>89.999405</xmpG:black>
                        </rdf:li>
                        <rdf:li rdf:parseType="Resource">
                           <xmpG:swatchName>C=0 M=0 Y=0 K=80</xmpG:swatchName>
                           <xmpG:mode>CMYK</xmpG:mode>
                           <xmpG:type>PROCESS</xmpG:type>
                           <xmpG:cyan>0.000000</xmpG:cyan>
                           <xmpG:magenta>0.000000</xmpG:magenta>
                           <xmpG:yellow>0.000000</xmpG:yellow>
                           <xmpG:black>79.998795</xmpG:black>
                        </rdf:li>
                        <rdf:li rdf:parseType="Resource">
                           <xmpG:swatchName>C=0 M=0 Y=0 K=70</xmpG:swatchName>
                           <xmpG:mode>CMYK</xmpG:mode>
                           <xmpG:type>PROCESS</xmpG:type>
                           <xmpG:cyan>0.000000</xmpG:cyan>
                           <xmpG:magenta>0.000000</xmpG:magenta>
                           <xmpG:yellow>0.000000</xmpG:yellow>
                           <xmpG:black>69.999702</xmpG:black>
                        </rdf:li>
                        <rdf:li rdf:parseType="Resource">
                           <xmpG:swatchName>C=0 M=0 Y=0 K=60</xmpG:swatchName>
                           <xmpG:mode>CMYK</xmpG:mode>
                           <xmpG:type>PROCESS</xmpG:type>
                           <xmpG:cyan>0.000000</xmpG:cyan>
                           <xmpG:magenta>0.000000</xmpG:magenta>
                           <xmpG:yellow>0.000000</xmpG:yellow>
                           <xmpG:black>59.999104</xmpG:black>
                        </rdf:li>
                        <rdf:li rdf:parseType="Resource">
                           <xmpG:swatchName>C=0 M=0 Y=0 K=50</xmpG:swatchName>
                           <xmpG:mode>CMYK</xmpG:mode>
                           <xmpG:type>PROCESS</xmpG:type>
                           <xmpG:cyan>0.000000</xmpG:cyan>
                           <xmpG:magenta>0.000000</xmpG:magenta>
                           <xmpG:yellow>0.000000</xmpG:yellow>
                           <xmpG:black>50.000000</xmpG:black>
                        </rdf:li>
                        <rdf:li rdf:parseType="Resource">
                           <xmpG:swatchName>C=0 M=0 Y=0 K=40</xmpG:swatchName>
                           <xmpG:mode>CMYK</xmpG:mode>
                           <xmpG:type>PROCESS</xmpG:type>
                           <xmpG:cyan>0.000000</xmpG:cyan>
                           <xmpG:magenta>0.000000</xmpG:magenta>
                           <xmpG:yellow>0.000000</xmpG:yellow>
                           <xmpG:black>39.999401</xmpG:black>
                        </rdf:li>
                        <rdf:li rdf:parseType="Resource">
                           <xmpG:swatchName>C=0 M=0 Y=0 K=30</xmpG:swatchName>
                           <xmpG:mode>CMYK</xmpG:mode>
                           <xmpG:type>PROCESS</xmpG:type>
                           <xmpG:cyan>0.000000</xmpG:cyan>
                           <xmpG:magenta>0.000000</xmpG:magenta>
                           <xmpG:yellow>0.000000</xmpG:yellow>
                           <xmpG:black>29.998802</xmpG:black>
                        </rdf:li>
                        <rdf:li rdf:parseType="Resource">
                           <xmpG:swatchName>C=0 M=0 Y=0 K=20</xmpG:swatchName>
                           <xmpG:mode>CMYK</xmpG:mode>
                           <xmpG:type>PROCESS</xmpG:type>
                           <xmpG:cyan>0.000000</xmpG:cyan>
                           <xmpG:magenta>0.000000</xmpG:magenta>
                           <xmpG:yellow>0.000000</xmpG:yellow>
                           <xmpG:black>19.999701</xmpG:black>
                        </rdf:li>
                        <rdf:li rdf:parseType="Resource">
                           <xmpG:swatchName>C=0 M=0 Y=0 K=10</xmpG:swatchName>
                           <xmpG:mode>CMYK</xmpG:mode>
                           <xmpG:type>PROCESS</xmpG:type>
                           <xmpG:cyan>0.000000</xmpG:cyan>
                           <xmpG:magenta>0.000000</xmpG:magenta>
                           <xmpG:yellow>0.000000</xmpG:yellow>
                           <xmpG:black>9.999103</xmpG:black>
                        </rdf:li>
                        <rdf:li rdf:parseType="Resource">
                           <xmpG:swatchName>C=0 M=0 Y=0 K=5</xmpG:swatchName>
                           <xmpG:mode>CMYK</xmpG:mode>
                           <xmpG:type>PROCESS</xmpG:type>
                           <xmpG:cyan>0.000000</xmpG:cyan>
                           <xmpG:magenta>0.000000</xmpG:magenta>
                           <xmpG:yellow>0.000000</xmpG:yellow>
                           <xmpG:black>4.998803</xmpG:black>
                        </rdf:li>
                     </rdf:Seq>
                  </xmpG:Colorants>
               </rdf:li>
               <rdf:li rdf:parseType="Resource">
                  <xmpG:groupName>Brights</xmpG:groupName>
                  <xmpG:groupType>1</xmpG:groupType>
                  <xmpG:Colorants>
                     <rdf:Seq>
                        <rdf:li rdf:parseType="Resource">
                           <xmpG:swatchName>C=0 M=100 Y=100 K=0</xmpG:swatchName>
                           <xmpG:mode>CMYK</xmpG:mode>
                           <xmpG:type>PROCESS</xmpG:type>
                           <xmpG:cyan>0.000000</xmpG:cyan>
                           <xmpG:magenta>100.000000</xmpG:magenta>
                           <xmpG:yellow>100.000000</xmpG:yellow>
                           <xmpG:black>0.000000</xmpG:black>
                        </rdf:li>
                        <rdf:li rdf:parseType="Resource">
                           <xmpG:swatchName>C=0 M=75 Y=100 K=0</xmpG:swatchName>
                           <xmpG:mode>CMYK</xmpG:mode>
                           <xmpG:type>PROCESS</xmpG:type>
                           <xmpG:cyan>0.000000</xmpG:cyan>
                           <xmpG:magenta>75.000000</xmpG:magenta>
                           <xmpG:yellow>100.000000</xmpG:yellow>
                           <xmpG:black>0.000000</xmpG:black>
                        </rdf:li>
                        <rdf:li rdf:parseType="Resource">
                           <xmpG:swatchName>C=0 M=10 Y=95 K=0</xmpG:swatchName>
                           <xmpG:mode>CMYK</xmpG:mode>
                           <xmpG:type>PROCESS</xmpG:type>
                           <xmpG:cyan>0.000000</xmpG:cyan>
                           <xmpG:magenta>10.000002</xmpG:magenta>
                           <xmpG:yellow>95.000000</xmpG:yellow>
                           <xmpG:black>0.000000</xmpG:black>
                        </rdf:li>
                        <rdf:li rdf:parseType="Resource">
                           <xmpG:swatchName>C=85 M=10 Y=100 K=0</xmpG:swatchName>
                           <xmpG:mode>CMYK</xmpG:mode>
                           <xmpG:type>PROCESS</xmpG:type>
                           <xmpG:cyan>85.000000</xmpG:cyan>
                           <xmpG:magenta>10.000002</xmpG:magenta>
                           <xmpG:yellow>100.000000</xmpG:yellow>
                           <xmpG:black>0.000000</xmpG:black>
                        </rdf:li>
                        <rdf:li rdf:parseType="Resource">
                           <xmpG:swatchName>C=100 M=90 Y=0 K=0</xmpG:swatchName>
                           <xmpG:mode>CMYK</xmpG:mode>
                           <xmpG:type>PROCESS</xmpG:type>
                           <xmpG:cyan>100.000000</xmpG:cyan>
                           <xmpG:magenta>90.000000</xmpG:magenta>
                           <xmpG:yellow>0.000000</xmpG:yellow>
                           <xmpG:black>0.000000</xmpG:black>
                        </rdf:li>
                        <rdf:li rdf:parseType="Resource">
                           <xmpG:swatchName>C=60 M=90 Y=0 K=0</xmpG:swatchName>
                           <xmpG:mode>CMYK</xmpG:mode>
                           <xmpG:type>PROCESS</xmpG:type>
                           <xmpG:cyan>60.000004</xmpG:cyan>
                           <xmpG:magenta>90.000000</xmpG:magenta>
                           <xmpG:yellow>0.003099</xmpG:yellow>
                           <xmpG:black>0.003099</xmpG:black>
                        </rdf:li>
                     </rdf:Seq>
                  </xmpG:Colorants>
               </rdf:li>
            </rdf:Seq>
         </xmpTPg:SwatchGroups>
      </rdf:Description>
      <rdf:Description rdf:about=""
            xmlns:pdf="http://ns.adobe.com/pdf/1.3/">
         <pdf:Producer>Adobe PDF library 9.90</pdf:Producer>
      </rdf:Description>
   </rdf:RDF>
</x:xmpmeta>
                                                                                                    
                                                                                                    
                                                                                                    
                                                                                                    
                                                                                                    
                                                                                                    
                                                                                                    
                                                                                                    
                                                                                                    
                                                                                                    
                                                                                                    
                                                                                                    
                                                                                                    
                                                                                                    
                                                                                                    
                                                                                                    
                                                                                                    
                                                                                                    
                                                                                                    
                                                                                                    
                           
<?xpacket end="w"?>
	</metadata>
<line fill="none" x1="-101.111" y1="70.555" x2="1241.888" y2="70.555"/>
<path fill="#FFFFFF" d="M114.157,44.575c-4.491-4.026-5.6-9.303-5.6-13.701c0-3.102,1.063-8.516,5.184-12.634
	c2.776-2.78,6.986-4.955,14.117-4.955c1.851,0,4.443,0.141,6.71,0.555c1.759,0.325,3.239,0.603,4.721,0.697
	c0.51,0.044,0.602,0.23,0.602,0.508c0,0.371-0.139,0.926-0.23,2.593c-0.093,1.525-0.093,4.071-0.139,4.763
	c-0.048,0.699-0.14,0.975-0.417,0.975c-0.324,0-0.37-0.325-0.37-0.975c0-1.801-0.741-3.701-1.945-4.719
	c-1.62-1.386-5.185-2.637-9.258-2.637c-6.156,0-9.024,1.805-10.644,3.377c-3.38,3.24-4.166,7.361-4.166,12.084
	c0,8.839,6.804,16.938,16.709,16.938c3.472,0,6.203-0.416,8.053-2.313c0.973-1.018,1.574-3.055,1.713-3.889
	c0.092-0.508,0.185-0.693,0.464-0.693c0.23,0,0.323,0.325,0.323,0.693c0,0.325-0.557,4.352-1.019,5.924
	c-0.277,0.88-0.369,0.974-1.204,1.343c-1.851,0.74-5.367,1.066-8.33,1.066C122.488,49.575,117.811,47.863,114.157,44.575"/>
<path fill="#FFFFFF" d="M150.022,30.55c0-6.107,0-7.221-0.093-8.467c-0.095-1.345-0.325-1.994-1.666-2.178
	c-0.325-0.044-1.02-0.093-1.389-0.093c-0.139,0-0.325-0.185-0.325-0.324c0-0.229,0.186-0.324,0.65-0.324
	c1.85,0,4.58,0.095,4.812,0.095c0.417,0,3.843-0.095,5.092-0.095c2.591,0,5.46,0.233,7.591,1.714
	c1.017,0.741,2.824,2.638,2.824,5.371c0,2.914-1.204,5.738-5,8.977c3.333,4.165,6.156,7.73,8.518,10.183
	c2.172,2.221,3.514,2.593,4.533,2.731c0.788,0.139,1.204,0.139,1.436,0.139c0.231,0,0.369,0.186,0.369,0.326
	c0,0.228-0.228,0.319-0.97,0.319h-2.546c-2.315,0-3.332-0.228-4.351-0.784c-1.759-0.926-3.24-2.824-5.552-5.786
	c-1.717-2.13-3.519-4.676-4.399-5.738c-0.185-0.186-0.28-0.233-0.558-0.233l-5.183-0.091c-0.183,0-0.277,0.091-0.277,0.324v0.923
	c0,3.797,0,6.85,0.186,8.471c0.139,1.157,0.368,1.896,1.62,2.082c0.555,0.092,1.434,0.187,1.806,0.187
	c0.277,0,0.324,0.186,0.324,0.326c0,0.182-0.186,0.319-0.649,0.319c-2.22,0-4.814-0.137-5-0.137c-0.046,0-2.776,0.137-4.025,0.137
	c-0.418,0-0.648-0.091-0.648-0.319c0-0.14,0.091-0.326,0.323-0.326c0.371,0,0.878-0.095,1.251-0.187
	c0.785-0.186,0.878-0.925,1.064-2.082c0.232-1.621,0.232-4.72,0.232-8.516V30.55z M153.539,33.884c0,0.23,0.094,0.368,0.277,0.511
	c0.601,0.32,2.686,0.597,4.491,0.597c0.97,0,2.084-0.043,3.055-0.692c1.389-0.927,2.453-3.01,2.453-6.016
	c0-4.908-2.684-7.73-7.036-7.73c-1.203,0-2.498,0.138-2.915,0.228c-0.186,0.096-0.325,0.234-0.325,0.465V33.884z"/>
<path fill="#FFFFFF" d="M181.118,30.55c0-6.107,0-7.221-0.091-8.467c-0.094-1.345-0.325-1.994-1.667-2.179
	c-0.325-0.043-1.017-0.092-1.389-0.092c-0.139,0-0.324-0.185-0.324-0.324c0-0.23,0.185-0.324,0.648-0.324
	c1.851,0,4.491,0.094,4.719,0.094c0.281,0,8.796,0.044,9.722,0c0.787-0.047,1.527-0.186,1.851-0.233
	c0.187-0.044,0.371-0.183,0.557-0.183c0.138,0,0.183,0.183,0.183,0.369c0,0.277-0.229,0.74-0.324,1.852
	c-0.045,0.369-0.138,2.129-0.229,2.591c-0.049,0.186-0.187,0.417-0.371,0.417c-0.232,0-0.326-0.187-0.326-0.509
	c0-0.277-0.044-0.926-0.229-1.388c-0.278-0.65-0.694-0.927-2.915-1.204c-0.695-0.092-5.417-0.139-5.878-0.139
	c-0.186,0-0.233,0.139-0.233,0.416v10.692c0,0.278,0,0.416,0.233,0.416c0.507,0,5.878,0,6.803-0.091
	c0.971-0.091,1.572-0.137,1.99-0.555c0.276-0.276,0.462-0.51,0.601-0.51c0.138,0,0.231,0.091,0.231,0.325
	c0,0.229-0.231,0.877-0.322,2.173c-0.095,0.789-0.187,2.269-0.187,2.547c0,0.324-0.094,0.742-0.369,0.742
	c-0.185,0-0.279-0.14-0.279-0.37c0-0.372,0-0.788-0.185-1.3c-0.138-0.553-0.509-1.016-2.083-1.202
	c-1.111-0.139-5.461-0.184-6.156-0.184c-0.23,0-0.277,0.14-0.277,0.279v3.285c0,1.343-0.046,5.926,0,6.711
	c0.093,2.637,0.832,3.148,4.859,3.148c1.065,0,3.01,0,4.074-0.417c1.065-0.463,1.62-1.157,1.85-2.731
	c0.093-0.464,0.186-0.603,0.417-0.603c0.232,0,0.278,0.325,0.278,0.603s-0.324,2.962-0.556,3.797
	c-0.278,1.018-0.693,1.018-2.267,1.018c-3.055,0-5.416-0.096-7.081-0.14c-1.713-0.093-2.779-0.093-3.382-0.093
	c-0.09,0-0.878,0-1.756,0.046c-0.786,0.047-1.712,0.091-2.362,0.091c-0.415,0-0.647-0.091-0.647-0.319
	c0-0.14,0.094-0.326,0.322-0.326c0.374,0,0.88-0.139,1.252-0.187c0.786-0.137,0.879-0.925,1.066-2.082
	c0.229-1.621,0.229-4.72,0.229-8.516V30.55z"/>
<path fill="#FFFFFF" d="M206.618,30.55c0-6.107,0-7.221-0.093-8.468c-0.092-1.344-0.323-1.993-1.666-2.178
	c-0.325-0.044-1.02-0.093-1.388-0.093c-0.138,0-0.325-0.185-0.325-0.323c0-0.23,0.187-0.324,0.647-0.324
	c1.852,0,4.49,0.094,4.724,0.094c0.461,0,3.053-0.094,5.462-0.094c4.071,0,11.522-0.371,16.337,4.489
	c2.038,2.038,3.979,5.324,3.979,9.999c0,4.953-2.127,8.745-4.396,11.063c-1.76,1.805-5.414,4.534-12.356,4.534
	c-1.761,0-3.935-0.138-5.696-0.229c-1.758-0.14-3.147-0.233-3.33-0.233c-0.092,0-0.835,0.046-1.666,0.046
	c-0.835,0.047-1.808,0.09-2.455,0.09c-0.416,0-0.648-0.09-0.648-0.318c0-0.14,0.091-0.326,0.325-0.326
	c0.368,0,0.879-0.095,1.248-0.187c0.788-0.186,0.881-0.926,1.065-2.082c0.232-1.621,0.232-4.721,0.232-8.516V30.55z M210.32,34.81
	c0,4.167,0,7.821,0.045,8.561c0.049,0.971,0.14,2.408,0.465,2.825c0.511,0.739,1.945,1.572,6.757,1.572
	c3.749,0,7.081-1.248,9.534-3.563c2.132-1.989,3.195-5.74,3.195-9.351c0-4.998-2.177-8.19-3.843-9.858
	c-3.841-3.889-8.329-4.396-13.189-4.396c-0.788,0-2.085,0.138-2.454,0.278c-0.37,0.138-0.51,0.325-0.51,0.785V34.81z"/>
<path fill="#FFFFFF" d="M247.344,37.494c0,3.795,0,6.895,0.186,8.516c0.14,1.156,0.278,1.896,1.481,2.082
	c0.603,0.091,1.481,0.187,1.851,0.187c0.232,0,0.324,0.186,0.324,0.326c0,0.182-0.186,0.318-0.647,0.318
	c-2.268,0-4.908-0.136-5.091-0.136c-0.232,0-2.779,0.136-4.029,0.136c-0.416,0-0.648-0.09-0.648-0.318
	c0-0.14,0.094-0.326,0.324-0.326c0.371,0,0.882-0.096,1.251-0.187c0.786-0.186,0.925-0.926,1.064-2.082
	c0.187-1.621,0.23-4.721,0.23-8.516V30.55c0-6.107,0-7.222-0.091-8.468c-0.093-1.344-0.417-1.946-1.296-2.131
	c-0.464-0.091-0.973-0.14-1.25-0.14c-0.186,0-0.324-0.185-0.324-0.323c0-0.23,0.186-0.325,0.648-0.325
	c1.342,0,3.889,0.095,4.121,0.095c0.183,0,2.823-0.095,4.07-0.095c0.464,0,0.648,0.095,0.648,0.325c0,0.138-0.184,0.323-0.324,0.323
	c-0.277,0-0.552,0-1.017,0.093c-1.109,0.232-1.342,0.787-1.433,2.178c-0.048,1.246-0.048,2.361-0.048,8.468V37.494z"/>
<path fill="#FFFFFF" d="M270.529,37.494c0,3.795,0,6.895,0.185,8.516c0.139,1.156,0.324,1.896,1.572,2.082
	c0.556,0.091,1.482,0.187,1.853,0.187c0.279,0,0.325,0.186,0.325,0.326c0,0.182-0.185,0.318-0.649,0.318
	c-2.223,0-4.814-0.136-5.045-0.136c-0.187,0-3.01,0.136-4.212,0.136c-0.464,0-0.649-0.09-0.649-0.318
	c0-0.14,0.095-0.283,0.324-0.283c0.371,0,0.834-0.091,1.203-0.182c0.835-0.185,1.063-0.974,1.206-2.13
	c0.182-1.621,0.182-4.721,0.182-8.516V20.97l-5.877,0.092c-2.545,0.045-3.519,0.322-4.12,1.248
	c-0.463,0.695-0.507,0.975-0.646,1.252c-0.095,0.322-0.231,0.369-0.416,0.369c-0.094,0-0.28-0.091-0.28-0.325
	c0-0.415,0.835-3.932,0.879-4.257c0.093-0.23,0.279-0.74,0.418-0.74c0.277,0,0.694,0.324,1.804,0.463
	c1.16,0.139,2.731,0.186,3.195,0.186h15.367c1.343,0,2.267-0.095,2.915-0.186c0.601-0.091,0.971-0.186,1.157-0.186
	c0.185,0,0.185,0.233,0.185,0.463c0,1.205-0.138,4.027-0.138,4.491c0,0.325-0.185,0.506-0.37,0.506
	c-0.184,0-0.277-0.138-0.325-0.693l-0.045-0.415c-0.139-1.204-1.016-2.083-4.907-2.176l-5.091-0.092V37.494z"/>
<path fill="#FFFFFF" d="M303.013,48.322c-0.646-0.32-0.695-0.506-0.695-1.758c0-2.312,0.186-4.166,0.23-4.906
	c0.047-0.506,0.141-0.74,0.372-0.74c0.277,0,0.326,0.14,0.326,0.509c0,0.416,0,1.066,0.138,1.711
	c0.692,3.426,3.746,4.725,6.848,4.725c4.444,0,6.621-3.196,6.621-6.158c0-3.193-1.343-5.046-5.324-8.332l-2.082-1.712
	c-4.908-4.025-6.017-6.894-6.017-10.042c0-4.954,3.7-8.333,9.582-8.333c1.802,0,3.145,0.186,4.303,0.464
	c0.88,0.185,1.251,0.229,1.62,0.229c0.37,0,0.463,0.096,0.463,0.324c0,0.234-0.185,1.759-0.185,4.908
	c0,0.74-0.093,1.065-0.325,1.065c-0.276,0-0.322-0.234-0.369-0.601c-0.045-0.556-0.324-1.807-0.6-2.313
	c-0.28-0.512-1.53-2.457-5.787-2.457c-3.194,0-5.696,1.993-5.696,5.371c0,2.638,1.205,4.304,5.648,7.775l1.298,1.017
	c5.462,4.305,6.756,7.176,6.756,10.879c0,1.896-0.74,5.413-3.933,7.683c-1.992,1.39-4.491,1.945-6.99,1.945
	C307.04,49.575,304.911,49.249,303.013,48.322"/>
<path fill="#FFFFFF" d="M337.49,19.952c0.512-1.295,0.695-1.529,0.971-1.529c0.419,0,0.557,0.558,0.974,1.438
	c0.739,1.663,7.266,17.912,9.767,23.88c1.479,3.52,2.591,4.028,3.47,4.305c0.603,0.186,1.203,0.233,1.622,0.233
	c0.23,0,0.509,0.092,0.509,0.327c0,0.228-0.465,0.318-0.928,0.318c-0.6,0-3.608,0-6.432-0.09c-0.788-0.046-1.437-0.046-1.437-0.277
	c0-0.186,0.094-0.186,0.28-0.278c0.23-0.095,0.648-0.416,0.369-1.065l-3.658-9.025c-0.09-0.186-0.136-0.234-0.368-0.234h-9.397
	c-0.185,0-0.323,0.096-0.416,0.324l-2.315,6.297c-0.37,0.971-0.6,1.945-0.6,2.638c0,0.788,0.695,1.065,1.387,1.065h0.37
	c0.325,0,0.418,0.139,0.418,0.327c0,0.228-0.232,0.318-0.603,0.318c-0.972,0-3.192-0.136-3.657-0.136
	c-0.415,0-2.453,0.136-4.119,0.136c-0.508,0-0.786-0.09-0.786-0.318c0-0.188,0.186-0.327,0.369-0.327
	c0.278,0,0.88-0.047,1.205-0.095c1.852-0.228,2.638-1.62,3.423-3.608L337.49,19.952z M342.026,36.334
	c0.187,0,0.187-0.09,0.139-0.276l-4.025-10.785c-0.233-0.603-0.462-0.603-0.696,0l-3.795,10.785c-0.046,0.186,0,0.276,0.138,0.276
	H342.026z"/>
<path fill="#FFFFFF" d="M363.868,37.494c0,3.795,0,6.895,0.186,8.516c0.139,1.156,0.278,1.896,1.481,2.082
	c0.6,0.091,1.482,0.187,1.852,0.187c0.231,0,0.324,0.186,0.324,0.326c0,0.182-0.185,0.318-0.649,0.318
	c-2.266,0-4.907-0.136-5.092-0.136c-0.229,0-2.776,0.136-4.027,0.136c-0.416,0-0.647-0.09-0.647-0.318
	c0-0.14,0.092-0.326,0.325-0.326c0.369,0,0.88-0.096,1.249-0.187c0.786-0.186,0.925-0.926,1.063-2.082
	c0.188-1.621,0.234-4.721,0.234-8.516V30.55c0-6.107,0-7.222-0.095-8.468c-0.093-1.344-0.416-1.946-1.295-2.131
	c-0.462-0.091-0.97-0.14-1.25-0.14c-0.185,0-0.324-0.185-0.324-0.323c0-0.23,0.185-0.325,0.649-0.325
	c1.342,0,3.889,0.095,4.118,0.095c0.185,0,2.826-0.095,4.075-0.095c0.464,0,0.647,0.095,0.647,0.325
	c0,0.138-0.183,0.323-0.325,0.323c-0.278,0-0.555,0-1.017,0.093c-1.112,0.232-1.343,0.787-1.436,2.178
	c-0.046,1.246-0.046,2.361-0.046,8.468V37.494z"/>
<path fill="#FFFFFF" d="M378.956,43.558c0.093,3.239,0.463,4.21,1.574,4.488c0.739,0.185,1.665,0.233,2.036,0.233
	c0.186,0,0.324,0.138,0.324,0.326c0,0.228-0.277,0.318-0.742,0.318c-2.314,0-3.935-0.136-4.303-0.136
	c-0.371,0-2.084,0.136-3.936,0.136c-0.415,0-0.647-0.043-0.647-0.318c0-0.188,0.139-0.326,0.324-0.326
	c0.323,0,1.063-0.048,1.664-0.233c1.018-0.278,1.159-1.343,1.159-4.908V20.601c0-1.576,0.232-1.991,0.556-1.991
	c0.462,0,1.155,0.788,1.573,1.202c0.646,0.651,6.572,6.944,12.868,13.423c4.026,4.167,8.377,8.843,9.628,10.137l-0.416-19.718
	c-0.047-2.546-0.28-3.424-1.529-3.655c-0.74-0.138-1.666-0.187-1.99-0.187c-0.278,0-0.326-0.228-0.326-0.371
	c0-0.229,0.326-0.277,0.789-0.277c1.852,0,3.795,0.095,4.256,0.095c0.464,0,1.808-0.095,3.472-0.095
	c0.418,0,0.742,0.048,0.742,0.277c0,0.143-0.185,0.371-0.461,0.371c-0.188,0-0.509,0-0.974,0.093
	c-1.343,0.277-1.434,1.066-1.434,3.425l-0.094,23.053c0,2.592-0.045,2.822-0.325,2.822c-0.415,0-0.832-0.324-3.101-2.407
	c-0.418-0.372-6.293-6.157-10.599-10.644c-4.72-4.954-9.304-9.765-10.554-11.157L378.956,43.558z"/>
<path fill="#FFFFFF" d="M424.678,37.494c0,3.795,0,6.895,0.186,8.516c0.14,1.156,0.323,1.896,1.572,2.082
	c0.555,0.091,1.481,0.187,1.853,0.187c0.279,0,0.324,0.186,0.324,0.326c0,0.182-0.184,0.318-0.648,0.318
	c-2.221,0-4.813-0.136-5.047-0.136c-0.184,0-3.008,0.136-4.209,0.136c-0.465,0-0.648-0.09-0.648-0.318
	c0-0.14,0.09-0.283,0.322-0.283c0.371,0,0.834-0.091,1.203-0.182c0.834-0.185,1.063-0.974,1.205-2.13
	c0.184-1.621,0.184-4.721,0.184-8.516V20.97l-5.877,0.092c-2.547,0.045-3.518,0.322-4.121,1.248
	c-0.462,0.695-0.506,0.975-0.646,1.252c-0.093,0.322-0.231,0.369-0.416,0.369c-0.092,0-0.279-0.091-0.279-0.325
	c0-0.415,0.836-3.932,0.88-4.257c0.091-0.23,0.278-0.74,0.417-0.74c0.277,0,0.693,0.324,1.806,0.463
	c1.156,0.139,2.729,0.186,3.192,0.186h15.367c1.343,0,2.267-0.095,2.914-0.186c0.604-0.091,0.975-0.186,1.16-0.186
	c0.184,0,0.184,0.233,0.184,0.463c0,1.205-0.137,4.027-0.137,4.491c0,0.325-0.188,0.506-0.371,0.506
	c-0.186,0-0.277-0.138-0.325-0.693l-0.046-0.415c-0.141-1.204-1.021-2.083-4.908-2.176l-5.089-0.092V37.494z"/>
<path fill="#A0B5C9" d="M111.035,62.022c-0.476,0-0.862-0.393-0.862-0.869c0-0.478,0.386-0.866,0.862-0.866H433.07
	c0.479,0,0.868,0.388,0.868,0.866c0,0.476-0.389,0.869-0.868,0.869H111.035z"/>
<path fill="#FFFFFF" d="M112.401,82.026c-1.454-1.22-1.84-2.827-1.84-4.199c0-0.967,0.319-2.64,1.723-3.896
	c1.071-0.937,2.475-1.505,4.665-1.505c0.92,0,1.474,0.068,2.141,0.153c0.553,0.081,1.039,0.181,1.472,0.233
	c0.168,0.017,0.219,0.084,0.219,0.166c0,0.118-0.033,0.283-0.069,0.787c-0.032,0.467-0.032,1.256-0.049,1.539
	c-0.017,0.199-0.069,0.348-0.201,0.348c-0.118,0-0.151-0.114-0.151-0.3c-0.017-0.451-0.198-0.951-0.568-1.32
	c-0.5-0.486-1.489-0.834-2.841-0.834c-1.29,0-2.11,0.234-2.778,0.801c-1.088,0.938-1.353,2.306-1.353,3.696
	c0,3.377,2.608,4.985,4.58,4.985c1.306,0,2.025-0.102,2.61-0.756c0.25-0.283,0.45-0.684,0.501-0.952
	c0.035-0.216,0.068-0.285,0.184-0.285c0.102,0,0.166,0.137,0.166,0.25c0,0.17-0.166,1.408-0.315,1.891
	c-0.067,0.25-0.134,0.319-0.384,0.419c-0.587,0.234-1.707,0.318-2.661,0.318C115.445,83.565,113.741,83.147,112.401,82.026"/>
<path fill="#FFFFFF" d="M131.992,76.742c0-2.157,0-2.561-0.018-3.009c-0.033-0.487-0.167-0.636-0.636-0.771
	c-0.116-0.035-0.368-0.051-0.584-0.051c-0.151,0-0.251-0.047-0.251-0.15c0-0.1,0.115-0.135,0.335-0.135
	c0.767,0,1.704,0.035,2.005,0.035c0.502,0,1.84-0.035,2.292-0.035c0.935,0,2.006,0.086,2.793,0.603
	c0.418,0.283,1.036,1.004,1.036,1.958c0,1.053-0.602,1.991-2.039,3.144c1.304,1.603,2.34,2.892,3.226,3.778
	c0.82,0.821,1.339,0.886,1.572,0.936c0.15,0.034,0.235,0.034,0.352,0.034s0.182,0.084,0.182,0.152c0,0.116-0.099,0.149-0.284,0.149
	h-1.402c-0.82,0-1.221-0.085-1.607-0.284c-0.635-0.319-1.187-0.987-2.005-2.09c-0.586-0.769-1.206-1.721-1.389-1.941
	c-0.082-0.08-0.167-0.098-0.269-0.098l-1.322-0.034c-0.065,0-0.115,0.034-0.115,0.114v0.204c0,1.318,0.018,2.425,0.082,3.026
	c0.05,0.416,0.119,0.688,0.569,0.751c0.218,0.035,0.536,0.051,0.719,0.051c0.118,0,0.186,0.084,0.186,0.152
	c0,0.099-0.119,0.149-0.301,0.149c-0.854,0-2.074-0.05-2.293-0.05c-0.284,0-1.221,0.05-1.806,0.05c-0.182,0-0.283-0.05-0.283-0.149
	c0-0.068,0.049-0.152,0.233-0.152c0.22,0,0.385-0.016,0.519-0.051c0.302-0.063,0.384-0.335,0.435-0.751
	c0.068-0.601,0.068-1.725,0.068-3.026V76.742z M133.864,77.844c0,0.153,0.035,0.204,0.132,0.25c0.317,0.102,0.756,0.136,1.123,0.136
	c0.585,0,0.785-0.051,1.036-0.233c0.452-0.319,0.954-0.937,0.954-2.108c0-2.008-1.371-2.524-2.241-2.524
	c-0.366,0-0.719,0.015-0.872,0.049c-0.097,0.035-0.132,0.085-0.132,0.201V77.844z"/>
<path fill="#FFFFFF" d="M151.497,76.742c0-2.157,0-2.561-0.017-3.009c-0.036-0.487-0.169-0.636-0.638-0.771
	c-0.115-0.035-0.368-0.051-0.583-0.051c-0.15,0-0.25-0.047-0.25-0.15c0-0.1,0.116-0.135,0.334-0.135
	c0.769,0,1.704,0.035,2.124,0.035c0.466,0,3.728,0.016,4.012,0c0.268-0.018,0.502-0.068,0.618-0.081
	c0.084-0.019,0.17-0.069,0.236-0.069c0.083,0,0.1,0.069,0.1,0.132c0,0.102-0.083,0.268-0.117,0.919
	c-0.016,0.153-0.049,0.773-0.085,0.938c-0.016,0.068-0.05,0.233-0.165,0.233c-0.101,0-0.118-0.064-0.118-0.181
	c0-0.102-0.017-0.352-0.101-0.519c-0.116-0.25-0.235-0.452-0.97-0.52c-0.252-0.031-2.006-0.064-2.307-0.064
	c-0.069,0-0.1,0.05-0.1,0.132v3.513c0,0.084,0.015,0.148,0.1,0.148c0.333,0,2.242,0,2.575-0.033c0.35-0.031,0.57-0.064,0.702-0.217
	c0.118-0.102,0.168-0.183,0.233-0.183c0.069,0,0.118,0.064,0.118,0.15c0,0.084-0.034,0.319-0.118,1.038
	c-0.03,0.284-0.065,0.85-0.065,0.953c0,0.115-0.018,0.318-0.152,0.318c-0.098,0-0.132-0.051-0.132-0.118
	c-0.016-0.149-0.016-0.336-0.05-0.518c-0.085-0.285-0.267-0.505-0.822-0.551c-0.266-0.033-1.939-0.067-2.307-0.067
	c-0.067,0-0.082,0.067-0.082,0.148v1.139c0,0.485-0.017,1.689,0,2.107c0.031,0.967,0.485,1.188,1.989,1.188
	c0.386,0,1.005-0.017,1.388-0.187c0.368-0.165,0.534-0.465,0.633-1.051c0.037-0.153,0.069-0.217,0.171-0.217
	c0.114,0,0.132,0.184,0.132,0.332c0,0.317-0.116,1.287-0.2,1.572c-0.103,0.369-0.233,0.369-0.785,0.369
	c-1.106,0-1.991-0.017-2.71-0.05c-0.717-0.017-1.271-0.034-1.706-0.034c-0.166,0-0.485,0.017-0.835,0.017
	c-0.352,0.017-0.72,0.033-1.021,0.033c-0.183,0-0.284-0.05-0.284-0.149c0-0.068,0.051-0.152,0.232-0.152
	c0.219,0,0.388-0.016,0.521-0.051c0.3-0.063,0.382-0.335,0.433-0.751c0.069-0.601,0.069-1.724,0.069-3.026V76.742z"/>
<path fill="#FFFFFF" d="M168.829,76.742c0-2.157,0-2.561-0.02-3.01c-0.032-0.486-0.166-0.635-0.635-0.77
	c-0.116-0.035-0.368-0.051-0.584-0.051c-0.151,0-0.25-0.048-0.25-0.15c0-0.1,0.114-0.135,0.334-0.135
	c0.767,0,1.704,0.035,2.124,0.035c0.449,0,1.504-0.035,2.39-0.035c1.84,0,4.316,0,5.92,1.624c0.736,0.736,1.388,1.924,1.388,3.61
	c0,1.79-0.769,3.146-1.606,3.966c-0.667,0.668-2.224,1.672-4.934,1.672c-0.534,0-1.169-0.05-1.755-0.084
	c-0.585-0.051-1.12-0.084-1.487-0.084c-0.169,0-0.486,0.017-0.836,0.017c-0.353,0.016-0.72,0.033-1.021,0.033
	c-0.183,0-0.285-0.05-0.285-0.149c0-0.068,0.052-0.152,0.234-0.152c0.218,0,0.386-0.016,0.52-0.051
	c0.299-0.063,0.383-0.336,0.433-0.752c0.07-0.601,0.07-1.724,0.07-3.025V76.742z M170.801,78.314c0,1.505,0.015,2.59,0.031,2.874
	c0.017,0.352,0.05,0.855,0.168,1.005c0.185,0.268,0.769,0.567,1.925,0.567c1.337,0,2.325-0.232,3.21-0.97
	c0.955-0.784,1.254-2.055,1.254-3.526c0-1.807-0.72-2.975-1.372-3.544c-1.353-1.208-2.959-1.356-4.112-1.356
	c-0.302,0-0.786,0.033-0.905,0.101c-0.134,0.047-0.184,0.116-0.184,0.285c-0.015,0.482-0.015,1.652-0.015,2.776V78.314z"/>
<path fill="#FFFFFF" d="M190.589,76.742c0-2.157,0-2.561-0.016-3.009c-0.034-0.487-0.184-0.653-0.502-0.755
	c-0.166-0.051-0.352-0.067-0.534-0.067c-0.151,0-0.234-0.032-0.234-0.166c0-0.084,0.117-0.119,0.351-0.119
	c0.551,0,1.553,0.035,1.971,0.035c0.369,0,1.323-0.035,1.891-0.035c0.185,0,0.302,0.035,0.302,0.119
	c0,0.134-0.086,0.166-0.233,0.166c-0.155,0-0.268,0.016-0.437,0.051c-0.402,0.067-0.518,0.267-0.551,0.771
	c-0.035,0.448-0.035,0.852-0.035,3.009v2.509c0,1.37,0,2.51,0.068,3.111c0.05,0.382,0.15,0.603,0.585,0.666
	c0.201,0.035,0.534,0.051,0.753,0.051c0.167,0,0.234,0.084,0.234,0.152c0,0.099-0.117,0.149-0.284,0.149
	c-0.97,0-1.976-0.05-2.375-0.05c-0.336,0-1.338,0.05-1.923,0.05c-0.185,0-0.283-0.05-0.283-0.149c0-0.068,0.049-0.152,0.232-0.152
	c0.218,0,0.386-0.016,0.518-0.051c0.302-0.063,0.386-0.268,0.437-0.682c0.065-0.585,0.065-1.725,0.065-3.095V76.742z"/>
<path fill="#FFFFFF" d="M207.383,73.499l-2.19,0.047c-0.854,0.016-1.206,0.119-1.421,0.437c-0.152,0.199-0.217,0.386-0.251,0.483
	c-0.034,0.119-0.067,0.186-0.168,0.186c-0.098,0-0.133-0.084-0.133-0.233c0-0.237,0.284-1.606,0.319-1.724
	c0.033-0.184,0.081-0.268,0.165-0.268c0.119,0,0.269,0.118,0.635,0.166c0.437,0.051,0.988,0.068,1.471,0.068h5.974
	c0.465,0,0.784-0.035,1.003-0.068c0.234-0.032,0.351-0.065,0.399-0.065c0.101,0,0.119,0.082,0.119,0.302
	c0,0.3-0.034,1.352-0.034,1.722c-0.017,0.152-0.052,0.231-0.133,0.231c-0.117,0-0.152-0.063-0.168-0.283l-0.017-0.148
	c-0.034-0.369-0.417-0.806-1.738-0.823l-1.857-0.03v5.752c0,1.302,0.016,2.425,0.084,3.042c0.048,0.4,0.134,0.672,0.568,0.735
	c0.201,0.035,0.536,0.051,0.751,0.051c0.17,0,0.235,0.084,0.235,0.152c0,0.1-0.117,0.149-0.286,0.149
	c-0.968,0-1.953-0.049-2.373-0.049c-0.335,0-1.337,0.049-1.923,0.049c-0.183,0-0.285-0.049-0.285-0.149
	c0-0.068,0.051-0.152,0.236-0.152c0.216,0,0.4-0.016,0.518-0.051c0.3-0.063,0.383-0.335,0.435-0.751
	c0.065-0.601,0.065-1.724,0.065-3.026V73.499z"/>
<path fill="#FFFFFF" d="M237.094,76.742c0-2.157,0-2.561-0.018-3.009c-0.03-0.487-0.165-0.636-0.633-0.771
	c-0.118-0.035-0.37-0.051-0.587-0.051c-0.15,0-0.25-0.047-0.25-0.15c0-0.1,0.116-0.135,0.336-0.135c0.768,0,1.705,0.035,2.005,0.035
	c0.501,0,1.841-0.035,2.292-0.035c0.938,0,2.006,0.086,2.792,0.603c0.418,0.283,1.038,1.004,1.038,1.958
	c0,1.053-0.603,1.991-2.041,3.144c1.304,1.603,2.341,2.892,3.227,3.778c0.821,0.821,1.337,0.886,1.572,0.936
	c0.152,0.034,0.234,0.034,0.35,0.034c0.119,0,0.185,0.084,0.185,0.152c0,0.116-0.1,0.149-0.284,0.149h-1.403
	c-0.821,0-1.222-0.085-1.606-0.284c-0.635-0.319-1.188-0.987-2.005-2.09c-0.588-0.769-1.206-1.721-1.39-1.941
	c-0.084-0.08-0.167-0.098-0.266-0.098l-1.322-0.034c-0.067,0-0.117,0.034-0.117,0.114v0.204c0,1.318,0.017,2.425,0.082,3.026
	c0.051,0.416,0.117,0.688,0.57,0.751c0.216,0.035,0.533,0.051,0.718,0.051c0.117,0,0.183,0.084,0.183,0.152
	c0,0.099-0.114,0.149-0.299,0.149c-0.854,0-2.076-0.05-2.293-0.05c-0.283,0-1.22,0.05-1.804,0.05c-0.184,0-0.287-0.05-0.287-0.149
	c0-0.068,0.052-0.152,0.234-0.152c0.22,0,0.386-0.016,0.521-0.051c0.301-0.063,0.384-0.335,0.434-0.751
	c0.066-0.601,0.066-1.725,0.066-3.026V76.742z M238.969,77.844c0,0.153,0.032,0.204,0.133,0.25c0.317,0.102,0.752,0.136,1.121,0.136
	c0.585,0,0.785-0.051,1.035-0.233c0.452-0.319,0.954-0.937,0.954-2.108c0-2.008-1.371-2.524-2.242-2.524
	c-0.368,0-0.718,0.015-0.868,0.049c-0.101,0.035-0.133,0.085-0.133,0.201V77.844z"/>
<path fill="#FFFFFF" d="M256.599,76.742c0-2.157,0-2.561-0.017-3.009c-0.033-0.487-0.168-0.636-0.633-0.771
	c-0.12-0.035-0.37-0.051-0.587-0.051c-0.15,0-0.251-0.047-0.251-0.15c0-0.1,0.117-0.135,0.334-0.135c0.77,0,1.706,0.035,2.124,0.035
	c0.47,0,3.729,0.016,4.014,0c0.268-0.018,0.5-0.068,0.619-0.081c0.083-0.019,0.168-0.069,0.233-0.069
	c0.086,0,0.099,0.069,0.099,0.132c0,0.102-0.081,0.268-0.115,0.919c-0.018,0.153-0.049,0.773-0.083,0.938
	c-0.019,0.068-0.051,0.233-0.168,0.233c-0.102,0-0.117-0.064-0.117-0.181c0-0.102-0.017-0.352-0.102-0.519
	c-0.116-0.25-0.233-0.452-0.967-0.52c-0.253-0.031-2.008-0.064-2.309-0.064c-0.067,0-0.1,0.05-0.1,0.132v3.513
	c0,0.084,0.016,0.148,0.1,0.148c0.332,0,2.241,0,2.576-0.033c0.352-0.031,0.567-0.064,0.7-0.217
	c0.117-0.102,0.169-0.183,0.235-0.183c0.067,0,0.117,0.064,0.117,0.15c0,0.084-0.033,0.319-0.117,1.038
	c-0.033,0.284-0.066,0.85-0.066,0.953c0,0.115-0.015,0.318-0.151,0.318c-0.099,0-0.134-0.051-0.134-0.118
	c-0.017-0.149-0.017-0.336-0.049-0.518c-0.085-0.285-0.27-0.505-0.819-0.551c-0.269-0.033-1.94-0.067-2.307-0.067
	c-0.069,0-0.085,0.067-0.085,0.148v1.139c0,0.485-0.018,1.689,0,2.107c0.033,0.967,0.484,1.188,1.988,1.188
	c0.386,0,1.005-0.017,1.388-0.187c0.368-0.165,0.538-0.465,0.637-1.051c0.034-0.153,0.067-0.217,0.168-0.217
	c0.116,0,0.133,0.184,0.133,0.332c0,0.317-0.116,1.287-0.202,1.572c-0.099,0.369-0.232,0.369-0.784,0.369
	c-1.104,0-1.99-0.017-2.711-0.05c-0.717-0.017-1.268-0.034-1.704-0.034c-0.167,0-0.485,0.017-0.837,0.017
	c-0.351,0.017-0.718,0.033-1.02,0.033c-0.184,0-0.284-0.05-0.284-0.149c0-0.068,0.05-0.152,0.234-0.152
	c0.219,0,0.385-0.016,0.52-0.051c0.298-0.063,0.383-0.335,0.431-0.751c0.069-0.601,0.069-1.724,0.069-3.026V76.742z"/>
<path fill="#FFFFFF" d="M273.463,83.198c-0.234-0.102-0.285-0.17-0.285-0.487c0-0.767,0.067-1.655,0.083-1.887
	c0-0.219,0.067-0.369,0.185-0.369c0.133,0,0.15,0.131,0.15,0.233c0,0.183,0.051,0.484,0.133,0.737
	c0.32,1.052,1.422,1.404,2.341,1.404c1.273,0,2.043-0.802,2.043-1.807c0-0.617-0.151-1.236-1.456-2.007l-0.853-0.501
	c-1.739-1.022-2.308-1.971-2.308-3.225c0-1.743,1.672-2.862,3.711-2.862c0.954,0,1.708,0.134,2.091,0.234
	c0.133,0.034,0.201,0.084,0.201,0.186c0,0.182-0.049,0.585-0.049,1.705c0,0.299-0.068,0.452-0.185,0.452
	c-0.1,0-0.15-0.084-0.15-0.255c0-0.131-0.067-0.568-0.385-0.934c-0.218-0.269-0.684-0.669-1.637-0.669
	c-1.056,0-2.009,0.553-2.009,1.523c0,0.636,0.233,1.136,1.556,1.874l0.602,0.33c1.939,1.073,2.541,2.158,2.541,3.446
	c0,1.056-0.401,1.908-1.472,2.662c-0.702,0.5-1.671,0.585-2.456,0.585C274.998,83.566,274.097,83.481,273.463,83.198"/>
<path fill="#FFFFFF" d="M293.283,73.499l-2.19,0.047c-0.853,0.016-1.203,0.119-1.422,0.437c-0.15,0.199-0.217,0.386-0.25,0.483
	c-0.034,0.119-0.068,0.186-0.167,0.186c-0.1,0-0.134-0.084-0.134-0.233c0-0.237,0.285-1.606,0.318-1.724
	c0.032-0.184,0.083-0.268,0.168-0.268c0.117,0,0.267,0.118,0.634,0.166c0.437,0.051,0.987,0.068,1.471,0.068h5.971
	c0.47,0,0.787-0.035,1.004-0.068c0.236-0.032,0.351-0.065,0.4-0.065c0.1,0,0.119,0.082,0.119,0.302c0,0.3-0.034,1.352-0.034,1.722
	c-0.018,0.152-0.051,0.231-0.134,0.231c-0.115,0-0.149-0.063-0.167-0.283l-0.017-0.148c-0.034-0.369-0.418-0.806-1.739-0.823
	l-1.855-0.03v5.752c0,1.302,0.014,2.425,0.081,3.042c0.052,0.4,0.135,0.672,0.569,0.735c0.201,0.035,0.535,0.051,0.751,0.051
	c0.17,0,0.236,0.084,0.236,0.152c0,0.1-0.117,0.149-0.284,0.149c-0.97,0-1.958-0.049-2.376-0.049c-0.333,0-1.337,0.049-1.922,0.049
	c-0.184,0-0.284-0.049-0.284-0.149c0-0.068,0.049-0.152,0.235-0.152c0.218,0,0.4-0.016,0.517-0.051
	c0.301-0.063,0.384-0.335,0.436-0.751c0.065-0.601,0.065-1.724,0.065-3.026V73.499z"/>
<path fill="#FFFFFF" d="M308.123,77.997c0-2.424,1.707-5.569,6.171-5.569c3.713,0,6.022,2.056,6.022,5.318
	c0,3.261-2.378,5.82-6.173,5.82C309.861,83.565,308.123,80.521,308.123,77.997 M318.123,78.264c0-3.146-1.889-5.083-4.264-5.083
	c-1.638,0-3.562,0.87-3.562,4.379c0,2.929,1.674,5.233,4.446,5.233C315.781,82.793,318.123,82.312,318.123,78.264"/>
<path fill="#FFFFFF" d="M331.09,76.742c0-2.157,0-2.561-0.017-3.009c-0.032-0.487-0.166-0.636-0.634-0.771
	c-0.118-0.035-0.368-0.051-0.586-0.051c-0.149,0-0.25-0.047-0.25-0.15c0-0.1,0.116-0.135,0.334-0.135
	c0.769,0,1.707,0.035,2.007,0.035c0.5,0,1.84-0.035,2.292-0.035c0.936,0,2.006,0.086,2.793,0.603
	c0.418,0.283,1.035,1.004,1.035,1.958c0,1.053-0.6,1.991-2.04,3.144c1.303,1.603,2.342,2.892,3.229,3.778
	c0.817,0.821,1.336,0.886,1.571,0.936c0.151,0.034,0.234,0.034,0.349,0.034c0.119,0,0.187,0.084,0.187,0.152
	c0,0.116-0.101,0.149-0.286,0.149h-1.406c-0.819,0-1.22-0.085-1.604-0.284c-0.634-0.319-1.187-0.987-2.005-2.09
	c-0.586-0.769-1.206-1.721-1.391-1.941c-0.082-0.08-0.165-0.098-0.267-0.098l-1.321-0.034c-0.067,0-0.116,0.034-0.116,0.114v0.204
	c0,1.318,0.017,2.425,0.083,3.026c0.05,0.416,0.117,0.688,0.569,0.751c0.218,0.035,0.534,0.051,0.72,0.051
	c0.118,0,0.183,0.084,0.183,0.152c0,0.099-0.118,0.149-0.299,0.149c-0.854,0-2.076-0.05-2.293-0.05c-0.283,0-1.221,0.05-1.806,0.05
	c-0.184,0-0.284-0.05-0.284-0.149c0-0.068,0.05-0.152,0.234-0.152c0.217,0,0.383-0.016,0.519-0.051
	c0.301-0.063,0.383-0.335,0.435-0.751c0.065-0.601,0.065-1.725,0.065-3.026V76.742z M332.964,77.844c0,0.153,0.034,0.204,0.133,0.25
	c0.317,0.102,0.752,0.136,1.123,0.136c0.584,0,0.784-0.051,1.036-0.233c0.451-0.319,0.953-0.937,0.953-2.108
	c0-2.008-1.373-2.524-2.243-2.524c-0.367,0-0.717,0.015-0.869,0.049c-0.099,0.035-0.133,0.085-0.133,0.201V77.844z"/>
<path fill="#FFFFFF" d="M351.23,79.802c-0.083,0-0.099,0.017-0.133,0.102l-0.787,1.904c-0.15,0.35-0.216,0.703-0.216,0.872
	c0,0.25,0.134,0.398,0.585,0.398h0.216c0.184,0,0.218,0.069,0.218,0.153c0,0.116-0.086,0.149-0.234,0.149
	c-0.485,0-1.17-0.05-1.638-0.05c-0.15,0-0.938,0.05-1.707,0.05c-0.184,0-0.267-0.033-0.267-0.149c0-0.084,0.049-0.153,0.168-0.153
	c0.133,0,0.301-0.016,0.435-0.016c0.668-0.097,0.918-0.534,1.221-1.254l3.846-8.945c0.167-0.402,0.284-0.571,0.434-0.571
	c0.219,0,0.284,0.135,0.435,0.452c0.351,0.785,2.81,6.604,3.746,8.762c0.569,1.287,0.985,1.475,1.255,1.522
	c0.215,0.034,0.384,0.05,0.552,0.05c0.133,0,0.202,0.051,0.202,0.153c0,0.116-0.086,0.149-0.637,0.149c-0.519,0-1.59,0-2.827-0.033
	c-0.267-0.017-0.436-0.017-0.436-0.116c0-0.084,0.035-0.135,0.186-0.153c0.098-0.016,0.201-0.148,0.133-0.318l-1.138-2.856
	c-0.032-0.085-0.082-0.102-0.15-0.102H351.23z M354.376,79.015c0.064,0,0.082-0.031,0.064-0.082l-1.387-3.611
	c-0.016-0.052-0.032-0.135-0.066-0.135c-0.05,0-0.067,0.083-0.082,0.135l-1.425,3.594c-0.031,0.068,0,0.099,0.052,0.099H354.376z"/>
<path fill="#FFFFFF" d="M370.064,73.499l-2.19,0.047c-0.854,0.016-1.203,0.119-1.421,0.437c-0.149,0.199-0.217,0.386-0.25,0.483
	c-0.036,0.119-0.068,0.186-0.169,0.186c-0.1,0-0.133-0.084-0.133-0.233c0-0.237,0.286-1.606,0.318-1.724
	c0.033-0.184,0.085-0.268,0.166-0.268c0.118,0,0.269,0.118,0.635,0.166c0.436,0.051,0.987,0.068,1.474,0.068h5.97
	c0.47,0,0.785-0.035,1.002-0.068c0.235-0.032,0.352-0.065,0.4-0.065c0.103,0,0.118,0.082,0.118,0.302c0,0.3-0.033,1.352-0.033,1.722
	c-0.017,0.152-0.051,0.231-0.133,0.231c-0.117,0-0.15-0.063-0.169-0.283l-0.016-0.148c-0.033-0.369-0.417-0.806-1.74-0.823
	l-1.854-0.03v5.752c0,1.302,0.015,2.425,0.084,3.042c0.048,0.4,0.132,0.672,0.566,0.735c0.203,0.035,0.538,0.051,0.754,0.051
	c0.168,0,0.234,0.084,0.234,0.152c0,0.1-0.117,0.149-0.284,0.149c-0.972,0-1.959-0.049-2.375-0.049
	c-0.334,0-1.338,0.049-1.922,0.049c-0.186,0-0.283-0.049-0.283-0.149c0-0.068,0.047-0.152,0.231-0.152
	c0.219,0,0.402-0.016,0.52-0.051c0.302-0.063,0.383-0.335,0.435-0.751c0.065-0.601,0.065-1.724,0.065-3.026V73.499z"/>
<path fill="#FFFFFF" d="M386.729,76.742c0-2.157,0-2.561-0.019-3.009c-0.033-0.487-0.182-0.653-0.502-0.755
	c-0.166-0.051-0.35-0.067-0.533-0.067c-0.15,0-0.234-0.032-0.234-0.166c0-0.084,0.116-0.119,0.352-0.119
	c0.551,0,1.554,0.035,1.971,0.035c0.369,0,1.324-0.035,1.891-0.035c0.186,0,0.303,0.035,0.303,0.119
	c0,0.134-0.084,0.166-0.234,0.166c-0.152,0-0.268,0.016-0.438,0.051c-0.4,0.067-0.517,0.267-0.551,0.771
	c-0.034,0.448-0.034,0.852-0.034,3.009v2.509c0,1.37,0,2.51,0.068,3.111c0.052,0.382,0.149,0.603,0.585,0.666
	c0.201,0.035,0.536,0.051,0.754,0.051c0.165,0,0.234,0.084,0.234,0.152c0,0.099-0.119,0.149-0.286,0.149
	c-0.968,0-1.974-0.05-2.374-0.05c-0.335,0-1.338,0.05-1.924,0.05c-0.184,0-0.286-0.05-0.286-0.149c0-0.068,0.054-0.152,0.235-0.152
	c0.219,0,0.385-0.016,0.521-0.051c0.301-0.063,0.383-0.268,0.434-0.682c0.067-0.585,0.067-1.725,0.067-3.095V76.742z"/>
<path fill="#FFFFFF" d="M399.794,77.997c0-2.424,1.707-5.569,6.17-5.569c3.711,0,6.021,2.056,6.021,5.318
	c0,3.261-2.376,5.82-6.172,5.82C401.532,83.565,399.794,80.521,399.794,77.997 M409.792,78.264c0-3.146-1.888-5.083-4.264-5.083
	c-1.638,0-3.562,0.87-3.562,4.379c0,2.929,1.672,5.233,4.449,5.233C407.453,82.793,409.792,82.312,409.792,78.264"/>
<path fill="#FFFFFF" d="M423.681,81.443c0.033,1.1,0.219,1.436,0.5,1.538c0.25,0.081,0.535,0.097,0.771,0.097
	c0.168,0,0.25,0.069,0.25,0.153c0,0.116-0.134,0.149-0.335,0.149c-0.952,0-1.639-0.05-1.905-0.05c-0.134,0-0.838,0.05-1.588,0.05
	c-0.201,0-0.334-0.017-0.334-0.149c0-0.084,0.099-0.153,0.231-0.153c0.203,0,0.47-0.016,0.67-0.067
	c0.386-0.099,0.435-0.484,0.455-1.722l0.131-8.426c0-0.284,0.099-0.488,0.25-0.488c0.185,0,0.387,0.217,0.636,0.471
	c0.185,0.182,2.39,2.442,4.532,4.532c1.005,0.988,2.959,2.992,3.178,3.19h0.066l-0.149-6.319c-0.019-0.869-0.152-1.119-0.504-1.255
	c-0.216-0.084-0.568-0.084-0.769-0.084c-0.184,0-0.233-0.064-0.233-0.15c0-0.117,0.151-0.134,0.368-0.134
	c0.771,0,1.555,0.034,1.871,0.034c0.168,0,0.721-0.034,1.438-0.034c0.203,0,0.336,0.017,0.336,0.134c0,0.086-0.085,0.15-0.251,0.15
	c-0.149,0-0.267,0-0.451,0.052c-0.401,0.117-0.518,0.367-0.534,1.169l-0.168,8.964c0,0.318-0.115,0.454-0.233,0.454
	c-0.25,0-0.452-0.153-0.603-0.302c-0.922-0.855-2.76-2.61-4.299-4.097c-1.605-1.54-3.16-3.262-3.443-3.51h-0.052L423.681,81.443z"/>
<path fill="#FFFFFF" d="M446.46,19.714v0.851h-2.034v5.78h-1.001v-5.78h-2.014v-0.851H446.46z M452.873,26.345l-0.267-3.996
	c-0.03-0.517,0-1.15-0.014-1.802h-0.052c-0.166,0.618-0.364,1.319-0.567,1.898l-1.382,3.82h-0.768l-1.349-3.916
	c-0.167-0.535-0.333-1.184-0.483-1.802h-0.051c-0.018,0.636,0,1.201-0.033,1.802l-0.25,3.996h-0.966l0.517-6.631h1.314l1.301,3.599
	c0.168,0.5,0.301,1.053,0.469,1.667h0.031c0.149-0.614,0.301-1.198,0.469-1.682l1.297-3.584h1.3l0.5,6.631H452.873z"/>
<linearGradient id="SVGID_1_" gradientUnits="userSpaceOnUse" x1="48.0005" y1="5.1577" x2="48.0005" y2="88.3062">
	<stop  offset="0" style="stop-color:#3B6E8E"/>
	<stop  offset="0.1511" style="stop-color:#3F7190"/>
	<stop  offset="0.2947" style="stop-color:#4A7997"/>
	<stop  offset="0.4352" style="stop-color:#5D87A2"/>
	<stop  offset="0.5739" style="stop-color:#789BB1"/>
	<stop  offset="0.7112" style="stop-color:#9BB5C5"/>
	<stop  offset="0.8475" style="stop-color:#C6D5DE"/>
	<stop  offset="0.9807" style="stop-color:#F7F9FA"/>
	<stop  offset="1" style="stop-color:#FFFFFF"/>
</linearGradient>
<rect x="4.154" y="5.158" fill="url(#SVGID_1_)" width="87.692" height="83.148"/>
<g opacity="0.3">
	<g>
		<defs>
			<rect id="SVGID_2_" x="4.221" y="5.265" width="82.576" height="70.69"/>
		</defs>
		<clipPath id="SVGID_3_">
			<use xlink:href="#SVGID_2_"  overflow="visible"/>
		</clipPath>
		<path clip-path="url(#SVGID_3_)" fill="#FFFFFF" d="M86.797,75.959C72.824,76.004,57.9,66.756,38.015,51.588
			C22.821,39.998,8.465,21.319,4.221,15.59V5.263h9.945C33.676,56.43,86.797,75.959,86.797,75.959"/>
	</g>
</g>
<g opacity="0.3">
	<g>
		<defs>
			<rect id="SVGID_4_" x="4.221" y="23.655" width="44.614" height="39.29"/>
		</defs>
		<clipPath id="SVGID_5_">
			<use xlink:href="#SVGID_4_"  overflow="visible"/>
		</clipPath>
		<path clip-path="url(#SVGID_5_)" fill="#FFFFFF" d="M48.835,62.941C23.218,52.623,9.338,39.326,4.221,33.722V23.661
			c1.789,2.373,4.607,6.114,9.065,12.028C25.478,51.863,48.835,62.941,48.835,62.941"/>
	</g>
</g>
<g opacity="0.3">
	<g>
		<defs>
			<rect id="SVGID_6_" x="19.902" y="5.265" width="32.996" height="39.13"/>
		</defs>
		<clipPath id="SVGID_7_">
			<use xlink:href="#SVGID_6_"  overflow="visible"/>
		</clipPath>
		<path clip-path="url(#SVGID_7_)" fill="#FFFFFF" d="M52.898,44.394c0,0-12.983-2.783-32.996-39.132h8.72
			C31.541,13.144,38.932,30.25,52.898,44.394"/>
	</g>
</g>
<path fill="#0C1A38" d="M7.257,88.928c0,0-1.387-0.079,0-1.003c1.387-0.925,9.565-2.179,10.491-2.642
	c0.926-0.462,1.62-0.462,2.312-0.925c0.695-0.462,0.465-1.157,1.39-1.388c0.924-0.231,2.543-0.926,2.543-0.926h2.775l1.851-5.318
	l4.393-1.156l2.546-40.477L34.401,34.4v-1.389l1.157-0.461l0.462-9.251l-1.388-0.695v-1.156c0,0,1.696-0.771,5.861-0.771
	c4.161,0,5.704,0.307,5.704,0.307v1.62l-1.156,0.695l0.786,9.3l1.168,0.308l0.101,1.206l-1.086,0.603l2.962,34.84l6.707,0.925
	l2.34,9.253c0,0,12.38,2.676,13.717,2.676c2.776,1.157,7.361,3.681,7.361,3.681l4.522,0.285c0,0,6.589,0.856,8.9,1.549
	c2.313,0.693-0.373,0.947-0.373,0.947s-6.861,0.582-11.488-0.113c-4.625-0.693-23.953,1.013-24.648,1.013
	c-0.694,0-7.027,0.004-7.027,0.004s-6.332-0.004-7.027-0.004c-0.694,0-4.685,0.335-5.704-1.482
	c-0.359-0.637-3.932,1.157-3.932,1.157l-5.678-0.068l-7.043-0.394c0,0,0.461-0.232-1.62,0.231c-2.081,0.461-6.477-0.457-6.477-0.457
	L7.257,88.928z"/>
<path fill="#FFFFFF" d="M36.459,22.883c0,0,1.733-1.32,3.817-1.111l0.137,10.13c0,0-2.169-0.253-4.37,0.556L36.459,22.883z"/>
<path fill="#FFFFFF" d="M34.655,34.192c0,0,0.764-0.625,2.151-1.041c1.387-0.416,4.094-0.902,4.094-0.902s-3.261-0.486-6.245,0.902
	V34.192z"/>
<path fill="#FFFFFF" d="M35.974,35.233l-2.139,40.865c0,0,0.73-0.347,2.098-1.718c0.532-0.534,1.078-2.019,1.84-2.51
	c0.951-0.615,1.951-0.391,3.334-0.974l-0.97-36.358C40.137,34.539,37.776,34.401,35.974,35.233"/>
<path fill="#FFFFFF" d="M44.565,45.818h-1.365v-2.727c0,0,0.121-0.676,0.719-0.676c0.599,0,0.646,0.676,0.646,0.676V45.818z"/>
<path fill="#0C1A38" d="M53.168,42.157c0,0,7.664-1.704,12.771,4.257c0,0,4.994-3.058,11.497,0.427c0,0-7.827-3.044-12.008,2.535
	C63.76,42.881,53.168,42.157,53.168,42.157"/>
<path fill="#0C1A38" d="M75.385,53.389c0,0,4.166-0.926,6.94,2.315c0,0,2.713-1.662,6.249,0.229c0,0-4.254-1.652-6.527,1.38
	C81.14,53.783,75.385,53.389,75.385,53.389"/>
<path fill="#FFFFFF" d="M28.763,77.389l-1.475,4.797c0,0,1.752-0.923,2.029-1.568c0.279-0.646,0.555-1.937,0.555-1.937l1.566-2.03
	L28.763,77.389z"/>
<polygon fill="#0C1A38" points="40.564,21.093 46.197,20.984 43.455,18.676 40.564,16.256 37.672,18.676 34.632,21.449 "/>
<path fill="#FFFFFF" d="M40.564,20.448l-0.028-3.447l-1.98,1.632l-3.337,2.673C36.743,20.697,38.759,20.182,40.564,20.448"/>
<polyline fill="#FFFFFF" points="39.789,30.46 42.238,30.513 42.157,23.146 40.288,22.985 "/>
<polygon fill="#FFFFFF" points="42.643,23.215 42.771,30.514 45.002,30.777 44.525,23.583 "/>
<polygon fill="#0C1A38" points="38.135,23.23 36.983,23.521 36.863,31.034 37.167,30.874 37.306,23.639 "/>
<polygon fill="#0C1A38" points="40.547,22.957 38.668,23.1 38.604,30.647 38.853,30.585 38.914,23.296 "/>
<defs>
	<filter id="Adobe_OpacityMaskFilter" filterUnits="userSpaceOnUse" x="43.257" y="15.632" width="49.011" height="25.624">
		<feColorMatrix  type="matrix" values="1 0 0 0 0  0 1 0 0 0  0 0 1 0 0  0 0 0 1 0"/>
	</filter>
</defs>
<mask maskUnits="userSpaceOnUse" x="43.257" y="15.632" width="49.011" height="25.624" id="SVGID_8_">
	<g filter="url(#Adobe_OpacityMaskFilter)">
		<rect x="43.257" y="15.632" width="49.01" height="25.622"/>
		<g enable-background="new    ">
			<g>
				<defs>
					<rect id="SVGID_9_" x="43.257" y="15.635" width="49.011" height="25.62"/>
				</defs>
				<clipPath id="SVGID_10_">
					<use xlink:href="#SVGID_9_"  overflow="visible"/>
				</clipPath>
				<g>
					<defs>
						<polygon id="SVGID_11_" points="43.257,28.95 117.536,47.606 117.536,10.613 43.778,25.262 						"/>
					</defs>
					<clipPath id="SVGID_12_" clip-path="url(#SVGID_10_)">
						<use xlink:href="#SVGID_11_"  overflow="visible"/>
					</clipPath>
					
						<linearGradient id="SVGID_13_" gradientUnits="userSpaceOnUse" x1="-292.3389" y1="3238.8018" x2="-291.3389" y2="3238.8018" gradientTransform="matrix(83.1588 0 0 -83.1588 24341.6504 269363.875)">
						<stop  offset="0" style="stop-color:#FFFFFF"/>
						<stop  offset="1" style="stop-color:#1D1D1B"/>
					</linearGradient>
					<rect x="43.257" y="10.613" clip-path="url(#SVGID_12_)" fill="url(#SVGID_13_)" width="74.279" height="36.993"/>
				</g>
			</g>
		</g>
	</g>
</mask>
<g mask="url(#SVGID_8_)">
	<g>
		<defs>
			<rect id="SVGID_14_" x="43.257" y="15.635" width="49.011" height="25.62"/>
		</defs>
		<clipPath id="SVGID_15_">
			<use xlink:href="#SVGID_14_"  overflow="visible"/>
		</clipPath>
		<polygon clip-path="url(#SVGID_15_)" fill="#FFFFFF" points="43.257,28.95 92.243,41.254 92.268,15.632 43.778,25.262 		"/>
	</g>
</g>
<path fill="none" d="M1242.889-36.445"/>
<path fill="none" d="M-101.111-36.445"/>
<path fill="none" d="M1242.889-36.445"/>
<path fill="none" d="M-101.111-36.445"/>
<path fill="none" d="M1242.889-36.445"/>
<path fill="none" d="M-101.111-36.445"/>
<path fill="none" d="M1242.889-36.445"/>
<path fill="none" d="M-101.111-36.445"/>
<path fill="#010101" d="M1241.889-35.445"/>
<path fill="#010101" d="M-100.11-35.445"/>
<path fill="#010101" d="M-101.111-36.445"/>
<path fill="#010101" d="M1242.889-36.445"/>
<path fill="none" d="M-101.111-36.445"/>
<path fill="none" d="M1242.889-36.445"/>
<rect x="4.488" y="5.491" fill="none" stroke="#FFFFFF" stroke-width="3" stroke-miterlimit="10" width="87.692" height="83.148"/>
</svg>
