<?xml version="1.0" encoding="utf-8"?>
<!-- Generator: Adobe Illustrator 15.0.2, SVG Export Plug-In . SVG Version: 6.00 Build 0)  -->
<!DOCTYPE svg PUBLIC "-//W3C//DTD SVG 1.1//EN" "http://www.w3.org/Graphics/SVG/1.1/DTD/svg11.dtd">
<svg version="1.1" id="Layer_1" xmlns="http://www.w3.org/2000/svg" xmlns:xlink="http://www.w3.org/1999/xlink" x="0px" y="0px"
	 width="370px" height="405.167px" viewBox="59.5 0 370 405.167" enable-background="new 59.5 0 370 405.167" xml:space="preserve">
<metadata><?xpacket begin="﻿" id="W5M0MpCehiHzreSzNTczkc9d"?>
<x:xmpmeta xmlns:x="adobe:ns:meta/" x:xmptk="Adobe XMP Core 5.0-c060 61.134777, 2010/02/12-17:32:00        ">
   <rdf:RDF xmlns:rdf="http://www.w3.org/1999/02/22-rdf-syntax-ns#">
      <rdf:Description rdf:about=""
            xmlns:dc="http://purl.org/dc/elements/1.1/">
         <dc:format>image/svg+xml</dc:format>
         <dc:title>
            <rdf:Alt>
               <rdf:li xml:lang="x-default">Print</rdf:li>
            </rdf:Alt>
         </dc:title>
      </rdf:Description>
      <rdf:Description rdf:about=""
            xmlns:xmp="http://ns.adobe.com/xap/1.0/"
            xmlns:xmpGImg="http://ns.adobe.com/xap/1.0/g/img/">
         <xmp:MetadataDate>2018-09-10T13:28:50-06:00</xmp:MetadataDate>
         <xmp:ModifyDate>2018-09-10T13:28:50-06:00</xmp:ModifyDate>
         <xmp:CreateDate>2018-09-10T13:28:50-06:00</xmp:CreateDate>
         <xmp:CreatorTool>Adobe Illustrator CS5</xmp:CreatorTool>
         <xmp:Thumbnails>
            <rdf:Alt>
               <rdf:li rdf:parseType="Resource">
                  <xmpGImg:width>256</xmpGImg:width>
                  <xmpGImg:height>84</xmpGImg:height>
                  <xmpGImg:format>JPEG</xmpGImg:format>
                  <xmpGImg:image>/9j/4AAQSkZJRgABAgEAYABgAAD/7QAsUGhvdG9zaG9wIDMuMAA4QklNA+0AAAAAABAAYAAAAAEA&#xA;AQBgAAAAAQAB/+4ADkFkb2JlAGTAAAAAAf/bAIQABgQEBAUEBgUFBgkGBQYJCwgGBggLDAoKCwoK&#xA;DBAMDAwMDAwQDA4PEA8ODBMTFBQTExwbGxscHx8fHx8fHx8fHwEHBwcNDA0YEBAYGhURFRofHx8f&#xA;Hx8fHx8fHx8fHx8fHx8fHx8fHx8fHx8fHx8fHx8fHx8fHx8fHx8fHx8fHx8f/8AAEQgAVAEAAwER&#xA;AAIRAQMRAf/EAaIAAAAHAQEBAQEAAAAAAAAAAAQFAwIGAQAHCAkKCwEAAgIDAQEBAQEAAAAAAAAA&#xA;AQACAwQFBgcICQoLEAACAQMDAgQCBgcDBAIGAnMBAgMRBAAFIRIxQVEGE2EicYEUMpGhBxWxQiPB&#xA;UtHhMxZi8CRygvElQzRTkqKyY3PCNUQnk6OzNhdUZHTD0uIIJoMJChgZhJRFRqS0VtNVKBry4/PE&#xA;1OT0ZXWFlaW1xdXl9WZ2hpamtsbW5vY3R1dnd4eXp7fH1+f3OEhYaHiImKi4yNjo+Ck5SVlpeYmZ&#xA;qbnJ2en5KjpKWmp6ipqqusra6voRAAICAQIDBQUEBQYECAMDbQEAAhEDBCESMUEFURNhIgZxgZEy&#xA;obHwFMHR4SNCFVJicvEzJDRDghaSUyWiY7LCB3PSNeJEgxdUkwgJChgZJjZFGidkdFU38qOzwygp&#xA;0+PzhJSktMTU5PRldYWVpbXF1eX1RlZmdoaWprbG1ub2R1dnd4eXp7fH1+f3OEhYaHiImKi4yNjo&#xA;+DlJWWl5iZmpucnZ6fkqOkpaanqKmqq6ytrq+v/aAAwDAQACEQMRAD8A9U4q7FXYq7FXYq7FXYq7&#xA;FXYq7FXYq7FXYq7FXYq7FXYq7FXYq7FXYq7FXYq7FXYq7FXYq7FXYq7FXYq7FXYq7FXYq7FUk89E&#xA;jyR5hI2I0y8of+jd8lD6gxnyL5/n0uykheMQxoWUgOqgEHx2GbEOsJPelWhi39SSyuoUMyElSygk&#xA;06ipHbJyiObCEzyKXavZm1vpEApG3xx/I9vo6ZKIBDCUpA80FQ4eEI45d7qHHhC8cu91DjwheOXe&#xA;6hx4QvHLvepf84+M4806gnI8DYsStdiRNHQ09qnMTVgUHN0RJJt75mC57sVdirsVdirsVdirsVdi&#xA;rsVdirsVdirsVdirsVdirsVdirsVdirsVdiqQ+f1ZvIfmRV+0dLvQPn9XfJ4/qHvYz+kvAtJvjcx&#xA;mKX4bmLaRTsTTav9c2MhTqom0DrtjJDOmoQbMCPUI7EdD/DJQPRjMdUx0u2XWNQ0+YW8FxFEJGmi&#xA;nDOPUVQURolaL1EJqWBkX6d1NWQmIb8ERI7oC3/Jv8ybLUruK4jtbqxkkke3lt5OCR/vpEMdJRGw&#xA;UcKgDlQEb4488a3Tm05JsBO7f8n9VqDe3sEK0qREGlYe2/pj8cJ1A6NY0p6lHR/ljo0ABnnmuHHW&#xA;hVFP0AE/8NkfHLL8uAqHyxoVrX0rKP8A2dZP+JlseMlPhxHRk35ZxJH5sZUUKosJ6KBQD99B2GU5&#xA;+TkafmXqmYrlOxV2KuxV2KuxV2KuxV2KuxV2KuxV2KuxV2KuxV2KuxV2KuxV2KuxV2KpH57YL5H8&#xA;xMeg0y8J+i3fJQ+oMZ8i+f8AUrEkpqlifiXd+PceP9c2UT0LqpDqEdaSwahbEECpHGWM9q4DsyG6&#xA;v5H0DV181PbadDDcyi2kmiS6ne3g4K6IWZoo5nZl9SgUKK1+0MrzyuLbpo1IsO8s/nV+ZOsa5qCX&#xA;V7EIbUsBHHEnEcpmNKFaHqfi2PTDDFFlmySHJnVr+aWpUpfWUU3blCzRn5kN6gP4YTgHQtQ1B6hM&#xA;ovPOg3X22ktm8JUqK+xTn+OQ8Ihn40Sqm4tLkE28yTDqeDBqfOmCiE2CnH5dpx82t72E/wDyegyv&#xA;NybcHMvT8xnKdirsVdirsVdirsVdirsVdirsVdirsVdirsVdirsVdirsVdirsVdirsVSLz6K+RfM&#xA;Y8dLvf8AqHfJ4/qHvYz+kvAbGWe0b4Ryib7UZ6H5ZsTu6oGkUbGj/XdNPTeSDuPHbwwX0LKuoZ3+&#xA;VkyXHmRpVUArYzLID9pSZYCKexpmNqNg5WmNkvn3ydNo1t5surDT45frSwXkesGcj05Zkv39IxAE&#xA;kAQMlenxA/PL4sM3Jkt7pGpszS2V80bgkpBMkbxHuFbiqSe1eWWW4wruQmn3eu3VVbSfQaJjHNJL&#xA;NwRnQ0Jiorsy+BIGNpMR3pvDbylQzIYn7qSCRTwIOG2NPQ/yde4bzVOJpGkAsJePMk0/fQ9K5i6n&#xA;kHL0vMvZMw3NdirsVdirsVdirsVdirsVdirsVdirsVdirsVdirsVdirsVdirsVdirsVSTzyK+SfM&#xA;A8dNvP8Akw+Sh9QYz5F4n9Q9sz7dbwr47SSNw8ZKsOhGNrTN/wArUD69fytEBLFaoGkWoB9WQncd&#xA;Kn0v15j5+QcvT9Xzd5Ehjj/OjVLG4IIkuNQgYjpVJGbv7pl97MJh7Dd6DJASQOcXZvD54ibQYUhf&#xA;qHthtHCl1xousrcK9leJ6Tk+rFdR+oEHUGP0zE3XajN8ulCeJNBnv5T20sHmZxKytIbGbkyqVBpN&#xA;D0BLfrzH1B2cjTDcvW8xXLdirsVdirsVdirsVdirsVdirsVdirsVdirsVdirsVdirsVdirsVdirs&#xA;VSbzoK+TteHjp12P+SD5KHMMZci85/Rh8MyuJw+F36MPhjxLwpz5Lu9O0S88wX2pXUVnZQWli89x&#xA;O6xoi+pdAFmYgbk0HvlWXem/CKt8lWfmfS9O/Nq88wO5m0z9I30olhHItFOZVVlBK1qHBzJA2YS3&#xA;fRfkzzdo/mWxludJla4toX9KVJEKOrcQ1KN2ocrkKYhPX0a3n+KA8G7ocjxLwoV9IkQ0ZSDkuJjw&#xA;pz5HtfQ80j/Ksbj8JrfKsp2bsI3eiZQ5DsVdirsVdirsVdirsVdirsVdirsVdirsVdirsVdirsVd&#xA;irsVdirsVdiqU+bhy8qa0PGwuR/yRbJR5hEuSTfoj2yziaeFhHm/8yvIPlu7k0u/1eOLVacfRSOS&#xA;f0mYfCZvTVgtK1IJrTtk4xJRQfM35g/mPq/mXVNRihu510CacG2tHIBeOEsIWmC9Woxbj9lWY8QM&#xA;vjGvexJYbk0PRPyg/NCz8j3GoJqFpLd2V+IiVhKh0eIt8QD0BqH8RkJxtL3DRfz3/KzU5I4pL6XT&#xA;ZZKBRewsigns0kfqxr8y1PfKTCSdnpttbx3Vsk9tMtxbSqGilRhIjKehVhUEZXbLhVdHs/q/me3N&#xA;KcrK6/CW2yMjszgKLK8rbHYq7FXYq7FXYq7FXYq7FXYq7FXYq7FXYq7FXYq7FXYq7FXYq7FXYq7F&#xA;UPqNlFf6fc2MrMkV1E8EjJQMFkUqStQwrQ7VGEFWB+afyaTzIsq3vm/zCiSEn0Ibm3hgoTXiYore&#xA;NWA6Cu+TjkroGBhbDJf+cPvy+ZF9PV9WWT9tmktmB8aAQLT78n+YKPDC0/8AOHvkP6tIg1fVPrLU&#xA;9KUtblV+aCIcv+CGP5gr4YQf/Qm/lr/qYr3/AJFRYfzB7keEvh/5w58phiZtfv3WmwRIUNfmQ/6s&#xA;fzB7l8IJlH/ziF+Wa/a1DWH+c9sP1W4wfmJJ8MJpp3/ONflnS4hFpPmbzLpsYYuFtNQSEcjsTRYa&#xA;VwHMT0CfDDM/K3kM6Bei7fzDq+sFYXgjj1SWCZVEjIzEMkEUlaxjq1MhKd9EiNMpyDJ2KuxV2Kux&#xA;V2KuxV2KuxV2KuxV2KuxV2KuxV2KuxV2KuxV2KuxV2KuxVxNASBUjsO/34qo/WJf+WaT74/+a8NI&#xA;t31iX/lmk++P/mvGlt31iX/lmk++P/mvGlt31iX/AJZpPvj/AOa8aW3fWJf+WaT74/8AmvGlt31i&#xA;X/lmk++P/mvGlt31iX/lmk++P/mvGltfHI715RNHTpy47/8AAlsCV+KuxV2KuxV2KuxV2KuxV2Ku&#xA;xV2KuxV2KuxV2KuxV2KuxV2KuxV2KuxV2KuxV2KuxV2KuxV2KuxV2KuxV2KuxV2KuxV2KuxV2Kux&#xA;V2KuxV2KuxV2KuxV2KuxV2KuxV2Kv//Z</xmpGImg:image>
               </rdf:li>
            </rdf:Alt>
         </xmp:Thumbnails>
      </rdf:Description>
      <rdf:Description rdf:about=""
            xmlns:xmpMM="http://ns.adobe.com/xap/1.0/mm/"
            xmlns:stRef="http://ns.adobe.com/xap/1.0/sType/ResourceRef#"
            xmlns:stEvt="http://ns.adobe.com/xap/1.0/sType/ResourceEvent#">
         <xmpMM:InstanceID>xmp.iid:F97F11740720681188C6D0A993602417</xmpMM:InstanceID>
         <xmpMM:DocumentID>xmp.did:F97F11740720681188C6D0A993602417</xmpMM:DocumentID>
         <xmpMM:OriginalDocumentID>uuid:5D20892493BFDB11914A8590D31508C8</xmpMM:OriginalDocumentID>
         <xmpMM:RenditionClass>proof:pdf</xmpMM:RenditionClass>
         <xmpMM:DerivedFrom rdf:parseType="Resource">
            <stRef:instanceID>xmp.iid:F77F11740720681188C6B6CD9AE539F3</stRef:instanceID>
            <stRef:documentID>xmp.did:F77F11740720681188C6B6CD9AE539F3</stRef:documentID>
            <stRef:originalDocumentID>uuid:5D20892493BFDB11914A8590D31508C8</stRef:originalDocumentID>
            <stRef:renditionClass>proof:pdf</stRef:renditionClass>
         </xmpMM:DerivedFrom>
         <xmpMM:History>
            <rdf:Seq>
               <rdf:li rdf:parseType="Resource">
                  <stEvt:action>saved</stEvt:action>
                  <stEvt:instanceID>xmp.iid:F77F11740720681188C6B6CD9AE539F3</stEvt:instanceID>
                  <stEvt:when>2018-09-06T09:24:21-06:00</stEvt:when>
                  <stEvt:softwareAgent>Adobe Illustrator CS5</stEvt:softwareAgent>
                  <stEvt:changed>/</stEvt:changed>
               </rdf:li>
               <rdf:li rdf:parseType="Resource">
                  <stEvt:action>saved</stEvt:action>
                  <stEvt:instanceID>xmp.iid:F97F11740720681188C6D0A993602417</stEvt:instanceID>
                  <stEvt:when>2018-09-10T13:28:50-06:00</stEvt:when>
                  <stEvt:softwareAgent>Adobe Illustrator CS5</stEvt:softwareAgent>
                  <stEvt:changed>/</stEvt:changed>
               </rdf:li>
            </rdf:Seq>
         </xmpMM:History>
      </rdf:Description>
      <rdf:Description rdf:about=""
            xmlns:illustrator="http://ns.adobe.com/illustrator/1.0/">
         <illustrator:StartupProfile>Print</illustrator:StartupProfile>
      </rdf:Description>
      <rdf:Description rdf:about=""
            xmlns:xmpTPg="http://ns.adobe.com/xap/1.0/t/pg/"
            xmlns:stDim="http://ns.adobe.com/xap/1.0/sType/Dimensions#"
            xmlns:xmpG="http://ns.adobe.com/xap/1.0/g/">
         <xmpTPg:HasVisibleOverprint>False</xmpTPg:HasVisibleOverprint>
         <xmpTPg:HasVisibleTransparency>True</xmpTPg:HasVisibleTransparency>
         <xmpTPg:NPages>1</xmpTPg:NPages>
         <xmpTPg:MaxPageSize rdf:parseType="Resource">
            <stDim:w>5.138889</stDim:w>
            <stDim:h>5.627313</stDim:h>
            <stDim:unit>Inches</stDim:unit>
         </xmpTPg:MaxPageSize>
         <xmpTPg:PlateNames>
            <rdf:Seq>
               <rdf:li>Cyan</rdf:li>
               <rdf:li>Magenta</rdf:li>
               <rdf:li>Yellow</rdf:li>
               <rdf:li>Black</rdf:li>
            </rdf:Seq>
         </xmpTPg:PlateNames>
         <xmpTPg:SwatchGroups>
            <rdf:Seq>
               <rdf:li rdf:parseType="Resource">
                  <xmpG:groupName>Default Swatch Group</xmpG:groupName>
                  <xmpG:groupType>0</xmpG:groupType>
               </rdf:li>
            </rdf:Seq>
         </xmpTPg:SwatchGroups>
      </rdf:Description>
      <rdf:Description rdf:about=""
            xmlns:pdf="http://ns.adobe.com/pdf/1.3/">
         <pdf:Producer>Adobe PDF library 9.90</pdf:Producer>
      </rdf:Description>
   </rdf:RDF>
</x:xmpmeta>
                                                                                                    
                                                                                                    
                                                                                                    
                                                                                                    
                                                                                                    
                                                                                                    
                                                                                                    
                                                                                                    
                                                                                                    
                                                                                                    
                                                                                                    
                                                                                                    
                                                                                                    
                                                                                                    
                                                                                                    
                                                                                                    
                                                                                                    
                                                                                                    
                                                                                                    
                                                                                                    
                           
<?xpacket end="w"?>
	</metadata>
<line fill="none" x1="-129.111" y1="386.555" x2="1213.888" y2="386.555"/>
<path fill="#FFFFFF" d="M86.157,360.575c-4.491-4.025-5.6-9.303-5.6-13.701c0-3.102,1.063-8.516,5.184-12.633
	c2.776-2.781,6.986-4.955,14.117-4.955c1.851,0,4.443,0.141,6.71,0.555c1.759,0.324,3.239,0.603,4.721,0.697
	c0.51,0.043,0.602,0.229,0.602,0.508c0,0.371-0.139,0.926-0.23,2.593c-0.093,1.524-0.093,4.071-0.139,4.763
	c-0.048,0.699-0.14,0.975-0.417,0.975c-0.324,0-0.37-0.324-0.37-0.975c0-1.801-0.741-3.701-1.945-4.719
	c-1.62-1.387-5.185-2.637-9.258-2.637c-6.156,0-9.024,1.805-10.644,3.377c-3.38,3.24-4.166,7.361-4.166,12.084
	c0,8.838,6.804,16.938,16.709,16.938c3.472,0,6.203-0.416,8.053-2.312c0.973-1.019,1.574-3.055,1.713-3.889
	c0.092-0.509,0.185-0.693,0.464-0.693c0.23,0,0.323,0.324,0.323,0.693c0,0.324-0.557,4.352-1.019,5.924
	c-0.277,0.879-0.369,0.974-1.204,1.342c-1.851,0.74-5.367,1.066-8.33,1.066C94.488,365.575,89.811,363.863,86.157,360.575"/>
<path fill="#FFFFFF" d="M122.022,346.549c0-6.106,0-7.221-0.093-8.467c-0.095-1.345-0.325-1.994-1.666-2.178
	c-0.325-0.044-1.02-0.093-1.389-0.093c-0.139,0-0.325-0.185-0.325-0.324c0-0.229,0.186-0.323,0.65-0.323
	c1.85,0,4.58,0.094,4.812,0.094c0.417,0,3.843-0.094,5.092-0.094c2.591,0,5.46,0.232,7.591,1.713
	c1.017,0.742,2.824,2.639,2.824,5.371c0,2.914-1.204,5.738-5,8.978c3.333,4.165,6.156,7.729,8.518,10.183
	c2.172,2.221,3.514,2.594,4.533,2.731c0.788,0.139,1.204,0.139,1.436,0.139c0.231,0,0.369,0.187,0.369,0.326
	c0,0.228-0.228,0.319-0.97,0.319h-2.546c-2.315,0-3.332-0.229-4.351-0.784c-1.759-0.927-3.24-2.824-5.552-5.786
	c-1.717-2.13-3.519-4.676-4.399-5.738c-0.185-0.186-0.28-0.232-0.558-0.232l-5.183-0.092c-0.183,0-0.277,0.092-0.277,0.324v0.924
	c0,3.797,0,6.85,0.186,8.471c0.139,1.156,0.368,1.896,1.62,2.082c0.555,0.092,1.434,0.187,1.806,0.187
	c0.277,0,0.324,0.187,0.324,0.326c0,0.183-0.186,0.319-0.649,0.319c-2.22,0-4.814-0.137-5-0.137c-0.046,0-2.776,0.137-4.025,0.137
	c-0.418,0-0.648-0.092-0.648-0.319c0-0.14,0.091-0.326,0.323-0.326c0.371,0,0.878-0.095,1.251-0.187
	c0.785-0.186,0.878-0.926,1.064-2.082c0.232-1.621,0.232-4.721,0.232-8.516V346.549L122.022,346.549z M125.539,349.883
	c0,0.23,0.094,0.369,0.277,0.512c0.601,0.32,2.686,0.598,4.491,0.598c0.97,0,2.084-0.043,3.055-0.693
	c1.389-0.926,2.453-3.01,2.453-6.016c0-4.908-2.684-7.729-7.036-7.729c-1.203,0-2.498,0.138-2.915,0.228
	c-0.186,0.096-0.325,0.234-0.325,0.465V349.883z"/>
<path fill="#FFFFFF" d="M153.118,346.549c0-6.106,0-7.221-0.091-8.467c-0.094-1.345-0.325-1.994-1.667-2.179
	c-0.325-0.043-1.017-0.092-1.389-0.092c-0.139,0-0.324-0.185-0.324-0.324c0-0.229,0.185-0.323,0.648-0.323
	c1.851,0,4.491,0.094,4.719,0.094c0.281,0,8.796,0.043,9.722,0c0.787-0.047,1.527-0.186,1.851-0.233
	c0.187-0.044,0.371-0.183,0.557-0.183c0.138,0,0.183,0.183,0.183,0.369c0,0.276-0.229,0.74-0.324,1.852
	c-0.045,0.369-0.138,2.129-0.229,2.591c-0.049,0.187-0.187,0.417-0.371,0.417c-0.232,0-0.326-0.188-0.326-0.509
	c0-0.276-0.044-0.927-0.229-1.388c-0.278-0.65-0.694-0.928-2.915-1.205c-0.695-0.092-5.417-0.139-5.878-0.139
	c-0.186,0-0.233,0.139-0.233,0.416v10.692c0,0.278,0,0.416,0.233,0.416c0.507,0,5.878,0,6.803-0.091
	c0.971-0.092,1.572-0.137,1.99-0.555c0.276-0.276,0.462-0.51,0.601-0.51c0.138,0,0.231,0.09,0.231,0.324
	c0,0.229-0.231,0.877-0.322,2.174c-0.095,0.788-0.187,2.268-0.187,2.547c0,0.323-0.094,0.741-0.369,0.741
	c-0.185,0-0.279-0.14-0.279-0.37c0-0.371,0-0.787-0.185-1.3c-0.138-0.553-0.509-1.017-2.083-1.202
	c-1.111-0.139-5.461-0.184-6.156-0.184c-0.23,0-0.277,0.14-0.277,0.279v3.285c0,1.342-0.046,5.926,0,6.711
	c0.093,2.637,0.832,3.147,4.859,3.147c1.065,0,3.01,0,4.074-0.417c1.065-0.463,1.62-1.157,1.85-2.73
	c0.093-0.465,0.186-0.604,0.417-0.604c0.232,0,0.278,0.324,0.278,0.604c0,0.277-0.324,2.961-0.556,3.797
	c-0.278,1.018-0.693,1.018-2.267,1.018c-3.055,0-5.416-0.096-7.081-0.141c-1.713-0.092-2.779-0.092-3.382-0.092
	c-0.09,0-0.878,0-1.756,0.045c-0.786,0.047-1.712,0.092-2.362,0.092c-0.415,0-0.647-0.092-0.647-0.319
	c0-0.14,0.094-0.326,0.322-0.326c0.374,0,0.88-0.139,1.252-0.187c0.786-0.137,0.879-0.926,1.066-2.082
	c0.229-1.621,0.229-4.721,0.229-8.516V346.549L153.118,346.549z"/>
<path fill="#FFFFFF" d="M178.618,346.549c0-6.106,0-7.221-0.093-8.467c-0.092-1.345-0.323-1.994-1.666-2.179
	c-0.325-0.044-1.02-0.093-1.388-0.093c-0.138,0-0.325-0.186-0.325-0.323c0-0.229,0.187-0.323,0.647-0.323
	c1.852,0,4.49,0.094,4.724,0.094c0.461,0,3.053-0.094,5.462-0.094c4.071,0,11.522-0.371,16.337,4.488
	c2.037,2.038,3.979,5.324,3.979,9.999c0,4.953-2.127,8.745-4.396,11.063c-1.759,1.805-5.414,4.533-12.355,4.533
	c-1.761,0-3.935-0.138-5.696-0.229c-1.758-0.141-3.147-0.232-3.33-0.232c-0.092,0-0.835,0.045-1.666,0.045
	c-0.835,0.047-1.808,0.09-2.455,0.09c-0.416,0-0.648-0.09-0.648-0.317c0-0.14,0.091-0.326,0.325-0.326
	c0.368,0,0.879-0.095,1.248-0.187c0.788-0.186,0.881-0.926,1.065-2.082c0.232-1.621,0.232-4.721,0.232-8.516V346.549
	L178.618,346.549z M182.32,350.81c0,4.167,0,7.821,0.045,8.562c0.049,0.971,0.14,2.407,0.465,2.824
	c0.511,0.739,1.945,1.572,6.757,1.572c3.749,0,7.081-1.248,9.534-3.562c2.132-1.99,3.195-5.74,3.195-9.352
	c0-4.998-2.177-8.189-3.843-9.857c-3.841-3.89-8.329-4.396-13.189-4.396c-0.788,0-2.085,0.138-2.454,0.277
	c-0.37,0.139-0.51,0.326-0.51,0.785V350.81L182.32,350.81z"/>
<path fill="#FFFFFF" d="M219.344,353.495c0,3.795,0,6.895,0.186,8.516c0.141,1.156,0.279,1.896,1.482,2.082
	c0.602,0.091,1.48,0.187,1.85,0.187c0.232,0,0.324,0.187,0.324,0.326c0,0.183-0.186,0.317-0.646,0.317
	c-2.268,0-4.908-0.135-5.091-0.135c-0.232,0-2.779,0.135-4.029,0.135c-0.416,0-0.647-0.09-0.647-0.317
	c0-0.14,0.094-0.326,0.324-0.326c0.37,0,0.881-0.096,1.25-0.187c0.786-0.186,0.926-0.926,1.064-2.082
	c0.188-1.621,0.23-4.721,0.23-8.516v-6.945c0-6.106,0-7.221-0.092-8.467c-0.093-1.345-0.417-1.947-1.296-2.131
	c-0.464-0.092-0.974-0.141-1.25-0.141c-0.187,0-0.323-0.186-0.323-0.323c0-0.229,0.186-0.325,0.647-0.325
	c1.342,0,3.889,0.096,4.12,0.096c0.184,0,2.824-0.096,4.07-0.096c0.465,0,0.648,0.096,0.648,0.325c0,0.138-0.184,0.323-0.324,0.323
	c-0.277,0-0.552,0-1.017,0.093c-1.109,0.231-1.343,0.787-1.433,2.179c-0.049,1.246-0.049,2.36-0.049,8.467V353.495L219.344,353.495z
	"/>
<path fill="#FFFFFF" d="M242.529,353.495c0,3.795,0,6.895,0.185,8.516c0.14,1.156,0.324,1.896,1.572,2.082
	c0.556,0.091,1.481,0.187,1.853,0.187c0.279,0,0.325,0.187,0.325,0.326c0,0.183-0.185,0.317-0.649,0.317
	c-2.223,0-4.813-0.135-5.045-0.135c-0.187,0-3.01,0.135-4.211,0.135c-0.465,0-0.649-0.09-0.649-0.317
	c0-0.14,0.095-0.282,0.323-0.282c0.371,0,0.834-0.092,1.203-0.183c0.836-0.185,1.063-0.974,1.207-2.13
	c0.182-1.621,0.182-4.721,0.182-8.516v-16.525l-5.877,0.093c-2.545,0.045-3.52,0.321-4.12,1.248
	c-0.464,0.694-0.507,0.976-0.646,1.252c-0.096,0.321-0.231,0.369-0.416,0.369c-0.095,0-0.281-0.091-0.281-0.325
	c0-0.415,0.836-3.932,0.88-4.257c0.093-0.229,0.278-0.74,0.418-0.74c0.276,0,0.694,0.324,1.804,0.464
	c1.16,0.139,2.73,0.186,3.195,0.186h15.367c1.343,0,2.267-0.096,2.914-0.186c0.602-0.092,0.972-0.188,1.158-0.188
	c0.185,0,0.185,0.234,0.185,0.464c0,1.205-0.138,4.026-0.138,4.491c0,0.324-0.186,0.506-0.371,0.506
	c-0.184,0-0.276-0.139-0.324-0.693l-0.045-0.415c-0.139-1.204-1.016-2.083-4.907-2.176l-5.091-0.093V353.495z"/>
<path fill="#FFFFFF" d="M275.014,364.323c-0.646-0.32-0.695-0.507-0.695-1.759c0-2.312,0.186-4.166,0.229-4.905
	c0.048-0.507,0.142-0.74,0.372-0.74c0.277,0,0.326,0.14,0.326,0.508c0,0.416,0,1.066,0.138,1.712
	c0.692,3.426,3.746,4.725,6.849,4.725c4.443,0,6.621-3.196,6.621-6.157c0-3.193-1.344-5.047-5.324-8.332l-2.082-1.713
	c-4.908-4.025-6.018-6.894-6.018-10.041c0-4.955,3.7-8.334,9.582-8.334c1.803,0,3.146,0.187,4.303,0.465
	c0.881,0.185,1.252,0.229,1.621,0.229s0.463,0.096,0.463,0.324c0,0.234-0.186,1.759-0.186,4.908c0,0.74-0.093,1.064-0.324,1.064
	c-0.277,0-0.322-0.234-0.369-0.602c-0.045-0.555-0.324-1.807-0.601-2.312c-0.28-0.512-1.53-2.457-5.787-2.457
	c-3.194,0-5.696,1.993-5.696,5.371c0,2.639,1.205,4.305,5.648,7.775l1.298,1.017c5.462,4.306,6.757,7.177,6.757,10.88
	c0,1.895-0.74,5.412-3.934,7.682c-1.992,1.391-4.491,1.945-6.99,1.945C279.04,365.575,276.911,365.249,275.014,364.323"/>
<path fill="#FFFFFF" d="M309.49,335.952c0.512-1.295,0.695-1.529,0.971-1.529c0.419,0,0.557,0.559,0.975,1.438
	c0.738,1.663,7.266,17.912,9.767,23.88c1.479,3.52,2.591,4.028,3.47,4.305c0.604,0.187,1.203,0.233,1.622,0.233
	c0.229,0,0.509,0.093,0.509,0.327c0,0.229-0.465,0.318-0.928,0.318c-0.6,0-3.607,0-6.432-0.09c-0.789-0.047-1.438-0.047-1.438-0.277
	c0-0.186,0.094-0.186,0.28-0.278c0.229-0.095,0.647-0.416,0.368-1.065l-3.657-9.024c-0.09-0.187-0.136-0.233-0.368-0.233h-9.396
	c-0.186,0-0.323,0.096-0.416,0.323l-2.315,6.298c-0.37,0.971-0.601,1.944-0.601,2.637c0,0.789,0.695,1.065,1.388,1.065h0.37
	c0.324,0,0.418,0.14,0.418,0.327c0,0.229-0.232,0.318-0.604,0.318c-0.972,0-3.191-0.137-3.656-0.137
	c-0.416,0-2.453,0.137-4.119,0.137c-0.508,0-0.786-0.09-0.786-0.318c0-0.188,0.187-0.327,0.368-0.327
	c0.279,0,0.881-0.047,1.205-0.095c1.853-0.229,2.639-1.62,3.424-3.607L309.49,335.952z M314.025,352.334
	c0.188,0,0.188-0.09,0.14-0.276l-4.024-10.785c-0.233-0.603-0.463-0.603-0.697,0l-3.795,10.785c-0.045,0.187,0,0.276,0.139,0.276
	H314.025z"/>
<path fill="#FFFFFF" d="M335.868,353.495c0,3.795,0,6.895,0.187,8.516c0.139,1.156,0.277,1.896,1.48,2.082
	c0.6,0.091,1.482,0.187,1.852,0.187c0.231,0,0.324,0.187,0.324,0.326c0,0.183-0.186,0.317-0.648,0.317
	c-2.267,0-4.908-0.135-5.092-0.135c-0.229,0-2.777,0.135-4.027,0.135c-0.416,0-0.647-0.09-0.647-0.317
	c0-0.14,0.093-0.326,0.325-0.326c0.369,0,0.88-0.096,1.249-0.187c0.786-0.186,0.925-0.926,1.063-2.082
	c0.188-1.621,0.233-4.721,0.233-8.516v-6.945c0-6.106,0-7.221-0.095-8.467c-0.094-1.345-0.416-1.947-1.295-2.131
	c-0.463-0.092-0.971-0.141-1.25-0.141c-0.186,0-0.324-0.186-0.324-0.323c0-0.229,0.186-0.325,0.648-0.325
	c1.342,0,3.89,0.096,4.118,0.096c0.185,0,2.826-0.096,4.075-0.096c0.464,0,0.646,0.096,0.646,0.325c0,0.138-0.183,0.323-0.324,0.323
	c-0.278,0-0.555,0-1.018,0.093c-1.111,0.231-1.343,0.787-1.436,2.179c-0.046,1.246-0.046,2.36-0.046,8.467V353.495L335.868,353.495z
	"/>
<path fill="#FFFFFF" d="M350.956,359.558c0.093,3.239,0.463,4.21,1.573,4.487c0.74,0.186,1.666,0.233,2.037,0.233
	c0.186,0,0.324,0.138,0.324,0.326c0,0.228-0.277,0.317-0.742,0.317c-2.314,0-3.936-0.135-4.303-0.135
	c-0.371,0-2.085,0.135-3.937,0.135c-0.415,0-0.647-0.043-0.647-0.317c0-0.188,0.139-0.326,0.324-0.326
	c0.323,0,1.062-0.048,1.664-0.233c1.018-0.277,1.159-1.342,1.159-4.907v-22.537c0-1.576,0.231-1.991,0.556-1.991
	c0.462,0,1.155,0.788,1.573,1.202c0.646,0.651,6.571,6.944,12.868,13.423c4.025,4.167,8.377,8.844,9.628,10.137l-0.416-19.718
	c-0.047-2.546-0.28-3.424-1.529-3.655c-0.74-0.138-1.666-0.187-1.99-0.187c-0.277,0-0.325-0.228-0.325-0.371
	c0-0.229,0.325-0.276,0.789-0.276c1.852,0,3.795,0.094,4.256,0.094c0.464,0,1.808-0.094,3.472-0.094
	c0.418,0,0.742,0.047,0.742,0.276c0,0.144-0.186,0.371-0.461,0.371c-0.188,0-0.509,0-0.975,0.093
	c-1.343,0.277-1.434,1.066-1.434,3.426l-0.094,23.053c0,2.592-0.045,2.822-0.325,2.822c-0.415,0-0.832-0.324-3.102-2.408
	c-0.418-0.371-6.293-6.156-10.599-10.644c-4.72-4.954-9.304-9.765-10.554-11.157L350.956,359.558z"/>
<path fill="#FFFFFF" d="M396.678,353.495c0,3.795,0,6.895,0.187,8.516c0.14,1.156,0.323,1.896,1.571,2.082
	c0.556,0.091,1.481,0.187,1.854,0.187c0.279,0,0.324,0.187,0.324,0.326c0,0.183-0.185,0.317-0.648,0.317
	c-2.221,0-4.812-0.135-5.047-0.135c-0.184,0-3.008,0.135-4.209,0.135c-0.465,0-0.648-0.09-0.648-0.317
	c0-0.14,0.091-0.282,0.322-0.282c0.371,0,0.834-0.092,1.203-0.183c0.834-0.185,1.063-0.974,1.205-2.13
	c0.184-1.621,0.184-4.721,0.184-8.516v-16.525l-5.877,0.093c-2.547,0.045-3.518,0.321-4.121,1.248
	c-0.462,0.694-0.506,0.976-0.646,1.252c-0.093,0.321-0.231,0.369-0.416,0.369c-0.092,0-0.279-0.091-0.279-0.325
	c0-0.415,0.836-3.932,0.88-4.257c0.092-0.229,0.278-0.74,0.417-0.74c0.277,0,0.693,0.324,1.807,0.464
	c1.155,0.139,2.729,0.186,3.191,0.186h15.367c1.343,0,2.267-0.096,2.914-0.186c0.604-0.092,0.975-0.188,1.16-0.188
	c0.184,0,0.184,0.234,0.184,0.464c0,1.205-0.137,4.026-0.137,4.491c0,0.324-0.188,0.506-0.371,0.506
	c-0.186,0-0.277-0.139-0.325-0.693l-0.046-0.415c-0.141-1.204-1.021-2.083-4.908-2.176l-5.089-0.093v16.525H396.678z"/>
<path fill="#A0B5C9" d="M83.035,378.022c-0.476,0-0.862-0.393-0.862-0.869c0-0.479,0.386-0.865,0.862-0.865H405.07
	c0.479,0,0.868,0.387,0.868,0.865c0,0.477-0.39,0.869-0.868,0.869H83.035z"/>
<path fill="#FFFFFF" d="M84.401,398.026c-1.454-1.22-1.84-2.826-1.84-4.199c0-0.967,0.319-2.64,1.723-3.896
	c1.071-0.937,2.475-1.505,4.665-1.505c0.92,0,1.474,0.068,2.141,0.152c0.553,0.082,1.039,0.182,1.472,0.233
	c0.168,0.017,0.219,0.084,0.219,0.166c0,0.118-0.033,0.282-0.069,0.787c-0.032,0.467-0.032,1.256-0.049,1.539
	c-0.017,0.198-0.069,0.348-0.201,0.348c-0.118,0-0.151-0.114-0.151-0.3c-0.017-0.451-0.198-0.951-0.568-1.32
	c-0.5-0.486-1.489-0.834-2.841-0.834c-1.29,0-2.11,0.234-2.778,0.801c-1.088,0.938-1.353,2.307-1.353,3.696
	c0,3.378,2.608,4.985,4.58,4.985c1.306,0,2.025-0.102,2.61-0.756c0.25-0.283,0.45-0.684,0.501-0.952
	c0.035-0.216,0.068-0.285,0.184-0.285c0.102,0,0.166,0.138,0.166,0.25c0,0.17-0.166,1.407-0.315,1.892
	c-0.067,0.25-0.134,0.318-0.384,0.418c-0.587,0.234-1.707,0.318-2.661,0.318C87.445,399.565,85.741,399.147,84.401,398.026"/>
<path fill="#FFFFFF" d="M103.992,392.743c0-2.158,0-2.562-0.018-3.01c-0.033-0.486-0.167-0.636-0.636-0.771
	c-0.116-0.035-0.368-0.051-0.584-0.051c-0.151,0-0.251-0.047-0.251-0.15c0-0.1,0.115-0.135,0.335-0.135
	c0.767,0,1.704,0.035,2.005,0.035c0.502,0,1.84-0.035,2.292-0.035c0.935,0,2.006,0.086,2.793,0.604
	c0.418,0.283,1.036,1.004,1.036,1.958c0,1.054-0.602,1.991-2.039,3.144c1.304,1.604,2.34,2.893,3.226,3.778
	c0.82,0.821,1.339,0.886,1.572,0.937c0.15,0.033,0.235,0.033,0.352,0.033c0.117,0,0.182,0.084,0.182,0.152
	c0,0.116-0.099,0.148-0.284,0.148h-1.402c-0.82,0-1.221-0.084-1.607-0.283c-0.635-0.319-1.187-0.987-2.005-2.09
	c-0.586-0.77-1.206-1.721-1.389-1.941c-0.082-0.08-0.167-0.098-0.269-0.098l-1.322-0.034c-0.065,0-0.115,0.034-0.115,0.114v0.203
	c0,1.318,0.018,2.426,0.082,3.026c0.05,0.416,0.119,0.688,0.569,0.751c0.218,0.035,0.536,0.051,0.719,0.051
	c0.118,0,0.186,0.084,0.186,0.152c0,0.1-0.119,0.148-0.301,0.148c-0.854,0-2.074-0.049-2.293-0.049
	c-0.284,0-1.221,0.049-1.806,0.049c-0.182,0-0.283-0.049-0.283-0.148c0-0.068,0.049-0.152,0.233-0.152
	c0.22,0,0.385-0.016,0.519-0.051c0.302-0.062,0.384-0.335,0.435-0.751c0.068-0.601,0.068-1.726,0.068-3.026V392.743z
	 M105.864,393.844c0,0.152,0.035,0.203,0.132,0.25c0.317,0.102,0.756,0.136,1.123,0.136c0.585,0,0.785-0.051,1.036-0.233
	c0.452-0.318,0.954-0.937,0.954-2.107c0-2.008-1.371-2.523-2.241-2.523c-0.366,0-0.719,0.014-0.872,0.049
	c-0.097,0.035-0.132,0.084-0.132,0.201V393.844z"/>
<path fill="#FFFFFF" d="M123.497,392.743c0-2.158,0-2.562-0.017-3.01c-0.036-0.486-0.169-0.636-0.638-0.771
	c-0.115-0.035-0.368-0.051-0.583-0.051c-0.15,0-0.25-0.047-0.25-0.15c0-0.1,0.116-0.135,0.334-0.135
	c0.769,0,1.704,0.035,2.124,0.035c0.466,0,3.728,0.016,4.012,0c0.268-0.018,0.502-0.068,0.618-0.08c0.084-0.02,0.17-0.07,0.236-0.07
	c0.083,0,0.1,0.07,0.1,0.133c0,0.102-0.083,0.268-0.117,0.919c-0.016,0.153-0.049,0.772-0.085,0.938
	c-0.016,0.067-0.05,0.232-0.165,0.232c-0.101,0-0.118-0.064-0.118-0.182c0-0.102-0.017-0.352-0.101-0.518
	c-0.116-0.25-0.235-0.453-0.97-0.521c-0.252-0.031-2.006-0.063-2.307-0.063c-0.069,0-0.1,0.049-0.1,0.131v3.514
	c0,0.084,0.015,0.148,0.1,0.148c0.333,0,2.242,0,2.575-0.033c0.35-0.031,0.57-0.064,0.702-0.217
	c0.118-0.103,0.168-0.184,0.233-0.184c0.069,0,0.118,0.064,0.118,0.15c0,0.084-0.034,0.318-0.118,1.037
	c-0.03,0.285-0.065,0.851-0.065,0.953c0,0.115-0.018,0.318-0.152,0.318c-0.098,0-0.132-0.051-0.132-0.118
	c-0.016-0.149-0.016-0.336-0.05-0.519c-0.085-0.284-0.267-0.504-0.822-0.551c-0.266-0.033-1.939-0.066-2.307-0.066
	c-0.067,0-0.082,0.066-0.082,0.148v1.139c0,0.484-0.017,1.689,0,2.107c0.031,0.967,0.485,1.188,1.989,1.188
	c0.386,0,1.005-0.018,1.388-0.188c0.368-0.164,0.534-0.465,0.633-1.051c0.037-0.152,0.069-0.217,0.171-0.217
	c0.114,0,0.132,0.184,0.132,0.332c0,0.316-0.116,1.287-0.2,1.572c-0.103,0.369-0.233,0.369-0.785,0.369
	c-1.106,0-1.991-0.018-2.71-0.051c-0.717-0.017-1.271-0.033-1.706-0.033c-0.166,0-0.485,0.017-0.835,0.017
	c-0.352,0.017-0.72,0.032-1.021,0.032c-0.183,0-0.284-0.049-0.284-0.148c0-0.068,0.051-0.152,0.232-0.152
	c0.219,0,0.388-0.016,0.521-0.051c0.3-0.062,0.382-0.335,0.433-0.751c0.069-0.601,0.069-1.724,0.069-3.026V392.743L123.497,392.743z
	"/>
<path fill="#FFFFFF" d="M140.829,392.743c0-2.158,0-2.562-0.02-3.011c-0.032-0.485-0.166-0.635-0.635-0.771
	c-0.116-0.035-0.368-0.051-0.584-0.051c-0.151,0-0.25-0.048-0.25-0.15c0-0.1,0.114-0.135,0.334-0.135
	c0.767,0,1.704,0.035,2.124,0.035c0.449,0,1.504-0.035,2.39-0.035c1.84,0,4.316,0,5.92,1.625c0.736,0.735,1.388,1.924,1.388,3.609
	c0,1.79-0.769,3.146-1.606,3.967c-0.667,0.668-2.224,1.672-4.934,1.672c-0.534,0-1.169-0.051-1.755-0.084
	c-0.585-0.052-1.12-0.084-1.487-0.084c-0.169,0-0.486,0.017-0.836,0.017c-0.353,0.016-0.72,0.032-1.021,0.032
	c-0.183,0-0.285-0.049-0.285-0.148c0-0.068,0.052-0.152,0.234-0.152c0.218,0,0.386-0.016,0.52-0.051
	c0.299-0.062,0.383-0.336,0.433-0.752c0.07-0.602,0.07-1.725,0.07-3.025V392.743L140.829,392.743z M142.801,394.314
	c0,1.505,0.015,2.59,0.031,2.874c0.017,0.352,0.05,0.855,0.168,1.005c0.185,0.269,0.769,0.567,1.925,0.567
	c1.337,0,2.325-0.232,3.21-0.971c0.955-0.783,1.254-2.055,1.254-3.525c0-1.807-0.72-2.975-1.372-3.545
	c-1.353-1.207-2.959-1.355-4.112-1.355c-0.302,0-0.786,0.033-0.905,0.102c-0.134,0.047-0.184,0.115-0.184,0.285
	c-0.015,0.481-0.015,1.651-0.015,2.775V394.314L142.801,394.314z"/>
<path fill="#FFFFFF" d="M162.589,392.743c0-2.158,0-2.562-0.016-3.01c-0.034-0.486-0.184-0.652-0.502-0.755
	c-0.166-0.052-0.352-0.067-0.534-0.067c-0.151,0-0.234-0.031-0.234-0.166c0-0.084,0.117-0.119,0.351-0.119
	c0.551,0,1.553,0.035,1.971,0.035c0.369,0,1.323-0.035,1.891-0.035c0.185,0,0.302,0.035,0.302,0.119
	c0,0.135-0.086,0.166-0.233,0.166c-0.155,0-0.268,0.016-0.437,0.051c-0.402,0.067-0.518,0.268-0.551,0.771
	c-0.035,0.448-0.035,0.852-0.035,3.01v2.508c0,1.371,0,2.51,0.068,3.111c0.05,0.383,0.15,0.604,0.585,0.666
	c0.201,0.035,0.534,0.051,0.753,0.051c0.167,0,0.234,0.084,0.234,0.152c0,0.1-0.117,0.148-0.284,0.148
	c-0.97,0-1.976-0.049-2.375-0.049c-0.336,0-1.338,0.049-1.923,0.049c-0.185,0-0.283-0.049-0.283-0.148
	c0-0.068,0.049-0.152,0.232-0.152c0.218,0,0.386-0.016,0.518-0.051c0.302-0.062,0.386-0.268,0.437-0.682
	c0.065-0.586,0.065-1.725,0.065-3.096V392.743z"/>
<path fill="#FFFFFF" d="M179.383,389.499l-2.19,0.047c-0.854,0.017-1.206,0.119-1.421,0.438c-0.152,0.199-0.217,0.387-0.251,0.482
	c-0.034,0.119-0.067,0.187-0.168,0.187c-0.098,0-0.133-0.084-0.133-0.233c0-0.236,0.284-1.605,0.319-1.724
	c0.033-0.185,0.081-0.269,0.165-0.269c0.119,0,0.269,0.119,0.635,0.166c0.437,0.052,0.988,0.068,1.471,0.068h5.974
	c0.465,0,0.784-0.035,1.003-0.068c0.234-0.031,0.351-0.064,0.399-0.064c0.101,0,0.119,0.082,0.119,0.303
	c0,0.299-0.034,1.352-0.034,1.721c-0.017,0.152-0.052,0.232-0.133,0.232c-0.117,0-0.152-0.064-0.168-0.283l-0.017-0.148
	c-0.034-0.369-0.417-0.807-1.738-0.823l-1.857-0.03v5.752c0,1.303,0.016,2.426,0.084,3.043c0.048,0.399,0.134,0.672,0.568,0.734
	c0.201,0.035,0.536,0.051,0.751,0.051c0.17,0,0.235,0.084,0.235,0.152c0,0.1-0.117,0.148-0.286,0.148
	c-0.968,0-1.953-0.049-2.373-0.049c-0.335,0-1.337,0.049-1.923,0.049c-0.183,0-0.285-0.049-0.285-0.148
	c0-0.068,0.051-0.152,0.236-0.152c0.216,0,0.4-0.016,0.518-0.051c0.3-0.062,0.383-0.335,0.435-0.751
	c0.065-0.601,0.065-1.724,0.065-3.026V389.499L179.383,389.499z"/>
<path fill="#FFFFFF" d="M209.094,392.743c0-2.158,0-2.562-0.018-3.01c-0.03-0.486-0.165-0.636-0.633-0.771
	c-0.118-0.035-0.37-0.051-0.588-0.051c-0.149,0-0.25-0.047-0.25-0.15c0-0.1,0.117-0.135,0.336-0.135
	c0.769,0,1.705,0.035,2.006,0.035c0.501,0,1.841-0.035,2.291-0.035c0.938,0,2.007,0.086,2.793,0.604
	c0.418,0.283,1.037,1.004,1.037,1.958c0,1.054-0.603,1.991-2.041,3.144c1.305,1.604,2.342,2.893,3.228,3.778
	c0.821,0.821,1.337,0.886,1.572,0.937c0.151,0.033,0.233,0.033,0.351,0.033c0.118,0,0.184,0.084,0.184,0.152
	c0,0.116-0.1,0.148-0.283,0.148h-1.403c-0.821,0-1.222-0.084-1.606-0.283c-0.635-0.319-1.188-0.987-2.004-2.09
	c-0.588-0.77-1.207-1.721-1.391-1.941c-0.084-0.08-0.167-0.098-0.266-0.098l-1.322-0.034c-0.066,0-0.117,0.034-0.117,0.114v0.203
	c0,1.318,0.018,2.426,0.082,3.026c0.051,0.416,0.117,0.688,0.57,0.751c0.216,0.035,0.533,0.051,0.718,0.051
	c0.117,0,0.183,0.084,0.183,0.152c0,0.1-0.113,0.148-0.299,0.148c-0.854,0-2.076-0.049-2.293-0.049c-0.283,0-1.22,0.049-1.804,0.049
	c-0.185,0-0.287-0.049-0.287-0.148c0-0.068,0.052-0.152,0.234-0.152c0.22,0,0.386-0.016,0.521-0.051
	c0.301-0.062,0.385-0.335,0.434-0.751c0.066-0.601,0.066-1.726,0.066-3.026V392.743z M210.969,393.844
	c0,0.152,0.032,0.203,0.133,0.25c0.317,0.102,0.752,0.136,1.121,0.136c0.586,0,0.785-0.051,1.035-0.233
	c0.452-0.318,0.954-0.937,0.954-2.107c0-2.008-1.371-2.523-2.241-2.523c-0.369,0-0.719,0.014-0.869,0.049
	c-0.101,0.035-0.133,0.084-0.133,0.201V393.844z"/>
<path fill="#FFFFFF" d="M228.6,392.743c0-2.158,0-2.562-0.018-3.01c-0.033-0.486-0.168-0.636-0.633-0.771
	c-0.12-0.035-0.37-0.051-0.588-0.051c-0.149,0-0.25-0.047-0.25-0.15c0-0.1,0.117-0.135,0.334-0.135c0.77,0,1.705,0.035,2.123,0.035
	c0.471,0,3.729,0.016,4.015,0c0.269-0.018,0.5-0.068,0.619-0.08c0.083-0.02,0.168-0.07,0.233-0.07c0.086,0,0.099,0.07,0.099,0.133
	c0,0.102-0.081,0.268-0.115,0.919c-0.019,0.153-0.049,0.772-0.083,0.938c-0.02,0.067-0.051,0.232-0.168,0.232
	c-0.102,0-0.117-0.064-0.117-0.182c0-0.102-0.017-0.352-0.102-0.518c-0.116-0.25-0.233-0.453-0.967-0.521
	c-0.254-0.031-2.008-0.063-2.31-0.063c-0.067,0-0.1,0.049-0.1,0.131v3.514c0,0.084,0.016,0.148,0.1,0.148
	c0.332,0,2.241,0,2.576-0.033c0.353-0.031,0.567-0.064,0.7-0.217c0.117-0.103,0.169-0.184,0.234-0.184
	c0.067,0,0.117,0.064,0.117,0.15c0,0.084-0.033,0.318-0.117,1.037c-0.033,0.285-0.065,0.851-0.065,0.953
	c0,0.115-0.015,0.318-0.151,0.318c-0.099,0-0.134-0.051-0.134-0.118c-0.017-0.149-0.017-0.336-0.049-0.519
	c-0.085-0.284-0.271-0.504-0.819-0.551c-0.27-0.033-1.939-0.066-2.307-0.066c-0.069,0-0.086,0.066-0.086,0.148v1.139
	c0,0.484-0.018,1.689,0,2.107c0.033,0.967,0.484,1.188,1.988,1.188c0.387,0,1.006-0.018,1.389-0.188
	c0.367-0.164,0.537-0.465,0.637-1.051c0.034-0.152,0.066-0.217,0.168-0.217c0.116,0,0.133,0.184,0.133,0.332
	c0,0.316-0.115,1.287-0.201,1.572c-0.1,0.369-0.232,0.369-0.785,0.369c-1.104,0-1.989-0.018-2.711-0.051
	c-0.717-0.017-1.268-0.033-1.703-0.033c-0.168,0-0.485,0.017-0.838,0.017c-0.351,0.017-0.717,0.032-1.02,0.032
	c-0.184,0-0.284-0.049-0.284-0.148c0-0.068,0.05-0.152,0.234-0.152c0.219,0,0.385-0.016,0.521-0.051
	c0.297-0.062,0.383-0.335,0.43-0.751c0.07-0.601,0.07-1.724,0.07-3.026V392.743L228.6,392.743z"/>
<path fill="#FFFFFF" d="M245.463,399.198c-0.234-0.102-0.285-0.17-0.285-0.486c0-0.768,0.067-1.655,0.084-1.887
	c0-0.22,0.066-0.369,0.184-0.369c0.134,0,0.15,0.131,0.15,0.232c0,0.184,0.051,0.484,0.133,0.736
	c0.32,1.053,1.422,1.404,2.342,1.404c1.272,0,2.043-0.802,2.043-1.807c0-0.617-0.151-1.236-1.456-2.007l-0.853-0.501
	c-1.74-1.021-2.309-1.971-2.309-3.225c0-1.744,1.672-2.863,3.711-2.863c0.954,0,1.708,0.135,2.091,0.234
	c0.134,0.034,0.201,0.084,0.201,0.187c0,0.182-0.049,0.585-0.049,1.704c0,0.3-0.068,0.453-0.185,0.453
	c-0.101,0-0.15-0.084-0.15-0.256c0-0.131-0.067-0.567-0.385-0.934c-0.219-0.27-0.685-0.669-1.638-0.669
	c-1.056,0-2.009,0.554-2.009,1.522c0,0.637,0.232,1.137,1.557,1.875l0.602,0.33c1.939,1.072,2.541,2.158,2.541,3.445
	c0,1.057-0.401,1.908-1.473,2.662c-0.701,0.5-1.67,0.585-2.455,0.585C246.998,399.566,246.098,399.481,245.463,399.198"/>
<path fill="#FFFFFF" d="M265.283,389.499l-2.19,0.047c-0.853,0.017-1.202,0.119-1.422,0.438c-0.149,0.199-0.217,0.387-0.25,0.482
	c-0.034,0.119-0.067,0.187-0.167,0.187s-0.134-0.084-0.134-0.233c0-0.236,0.284-1.605,0.317-1.724
	c0.033-0.185,0.084-0.269,0.168-0.269c0.117,0,0.268,0.119,0.635,0.166c0.437,0.052,0.986,0.068,1.471,0.068h5.971
	c0.471,0,0.787-0.035,1.004-0.068c0.236-0.031,0.352-0.064,0.4-0.064c0.1,0,0.119,0.082,0.119,0.303
	c0,0.299-0.034,1.352-0.034,1.721c-0.019,0.152-0.051,0.232-0.134,0.232c-0.115,0-0.148-0.064-0.167-0.283l-0.017-0.148
	c-0.035-0.369-0.418-0.807-1.74-0.823l-1.854-0.03v5.752c0,1.303,0.015,2.426,0.081,3.043c0.053,0.399,0.135,0.672,0.569,0.734
	c0.2,0.035,0.534,0.051,0.751,0.051c0.17,0,0.236,0.084,0.236,0.152c0,0.1-0.117,0.148-0.285,0.148
	c-0.969,0-1.957-0.049-2.375-0.049c-0.334,0-1.338,0.049-1.922,0.049c-0.185,0-0.285-0.049-0.285-0.148
	c0-0.068,0.05-0.152,0.236-0.152c0.217,0,0.399-0.016,0.516-0.051c0.302-0.062,0.385-0.335,0.437-0.751
	c0.065-0.601,0.065-1.724,0.065-3.026V389.499L265.283,389.499z"/>
<path fill="#FFFFFF" d="M280.123,393.997c0-2.424,1.707-5.568,6.171-5.568c3.713,0,6.022,2.056,6.022,5.318
	c0,3.26-2.379,5.819-6.174,5.819C281.861,399.565,280.123,396.521,280.123,393.997 M290.123,394.264
	c0-3.146-1.889-5.083-4.264-5.083c-1.639,0-3.562,0.87-3.562,4.379c0,2.929,1.674,5.233,4.446,5.233
	C287.781,398.793,290.123,398.312,290.123,394.264"/>
<path fill="#FFFFFF" d="M303.09,392.743c0-2.158,0-2.562-0.017-3.01c-0.032-0.486-0.166-0.636-0.634-0.771
	c-0.119-0.035-0.369-0.051-0.586-0.051c-0.149,0-0.25-0.047-0.25-0.15c0-0.1,0.115-0.135,0.334-0.135
	c0.769,0,1.707,0.035,2.006,0.035c0.5,0,1.841-0.035,2.293-0.035c0.936,0,2.006,0.086,2.793,0.604
	c0.418,0.283,1.035,1.004,1.035,1.958c0,1.054-0.601,1.991-2.041,3.144c1.304,1.604,2.343,2.893,3.229,3.778
	c0.817,0.821,1.336,0.886,1.571,0.937c0.15,0.033,0.234,0.033,0.349,0.033c0.119,0,0.187,0.084,0.187,0.152
	c0,0.116-0.101,0.148-0.285,0.148h-1.406c-0.818,0-1.22-0.084-1.604-0.283c-0.635-0.319-1.188-0.987-2.006-2.09
	c-0.586-0.77-1.205-1.721-1.391-1.941c-0.082-0.08-0.165-0.098-0.268-0.098l-1.32-0.034c-0.066,0-0.116,0.034-0.116,0.114v0.203
	c0,1.318,0.017,2.426,0.083,3.026c0.051,0.416,0.117,0.688,0.569,0.751c0.218,0.035,0.534,0.051,0.72,0.051
	c0.118,0,0.184,0.084,0.184,0.152c0,0.1-0.119,0.148-0.299,0.148c-0.854,0-2.076-0.049-2.294-0.049
	c-0.282,0-1.221,0.049-1.806,0.049c-0.184,0-0.284-0.049-0.284-0.148c0-0.068,0.05-0.152,0.233-0.152
	c0.218,0,0.384-0.016,0.52-0.051c0.301-0.062,0.383-0.335,0.436-0.751c0.064-0.601,0.064-1.726,0.064-3.026V392.743L303.09,392.743z
	 M304.964,393.844c0,0.152,0.034,0.203,0.134,0.25c0.316,0.102,0.752,0.136,1.122,0.136c0.585,0,0.784-0.051,1.036-0.233
	c0.451-0.318,0.953-0.937,0.953-2.107c0-2.008-1.373-2.523-2.243-2.523c-0.366,0-0.717,0.014-0.868,0.049
	c-0.1,0.035-0.134,0.084-0.134,0.201V393.844z"/>
<path fill="#FFFFFF" d="M323.23,395.801c-0.084,0-0.1,0.018-0.133,0.103l-0.787,1.904c-0.15,0.351-0.217,0.702-0.217,0.872
	c0,0.25,0.135,0.398,0.586,0.398h0.215c0.185,0,0.219,0.068,0.219,0.152c0,0.116-0.086,0.148-0.234,0.148
	c-0.484,0-1.17-0.049-1.638-0.049c-0.15,0-0.938,0.049-1.707,0.049c-0.185,0-0.267-0.032-0.267-0.148
	c0-0.084,0.049-0.152,0.168-0.152c0.133,0,0.301-0.017,0.435-0.017c0.668-0.097,0.918-0.534,1.221-1.254l3.847-8.944
	c0.166-0.402,0.283-0.572,0.434-0.572c0.219,0,0.283,0.135,0.436,0.453c0.351,0.784,2.81,6.604,3.745,8.762
	c0.569,1.287,0.985,1.475,1.255,1.521c0.215,0.034,0.385,0.051,0.553,0.051c0.133,0,0.201,0.051,0.201,0.152
	c0,0.116-0.086,0.148-0.637,0.148c-0.52,0-1.59,0-2.826-0.032c-0.268-0.017-0.437-0.017-0.437-0.116
	c0-0.084,0.034-0.135,0.187-0.152c0.098-0.017,0.2-0.148,0.133-0.318l-1.139-2.855c-0.031-0.086-0.082-0.104-0.15-0.104H323.23z
	 M326.376,395.015c0.063,0,0.082-0.031,0.063-0.082l-1.387-3.61c-0.016-0.053-0.031-0.136-0.066-0.136
	c-0.049,0-0.066,0.083-0.082,0.136l-1.424,3.594c-0.031,0.067,0,0.099,0.052,0.099H326.376z"/>
<path fill="#FFFFFF" d="M342.064,389.499l-2.19,0.047c-0.854,0.017-1.203,0.119-1.421,0.438c-0.148,0.199-0.217,0.387-0.25,0.482
	c-0.036,0.119-0.068,0.187-0.169,0.187s-0.134-0.084-0.134-0.233c0-0.236,0.287-1.605,0.318-1.724
	c0.033-0.185,0.086-0.269,0.166-0.269c0.118,0,0.27,0.119,0.635,0.166c0.437,0.052,0.987,0.068,1.475,0.068h5.97
	c0.47,0,0.785-0.035,1.002-0.068c0.235-0.031,0.353-0.064,0.4-0.064c0.103,0,0.118,0.082,0.118,0.303
	c0,0.299-0.033,1.352-0.033,1.721c-0.018,0.152-0.051,0.232-0.133,0.232c-0.117,0-0.15-0.064-0.17-0.283l-0.016-0.148
	c-0.033-0.369-0.417-0.807-1.74-0.823l-1.854-0.03v5.752c0,1.303,0.016,2.426,0.084,3.043c0.048,0.399,0.132,0.672,0.566,0.734
	c0.203,0.035,0.537,0.051,0.754,0.051c0.168,0,0.234,0.084,0.234,0.152c0,0.1-0.117,0.148-0.285,0.148
	c-0.972,0-1.959-0.049-2.375-0.049c-0.334,0-1.338,0.049-1.922,0.049c-0.186,0-0.283-0.049-0.283-0.148
	c0-0.068,0.047-0.152,0.231-0.152c0.22,0,0.402-0.016,0.521-0.051c0.302-0.062,0.383-0.335,0.435-0.751
	c0.065-0.601,0.065-1.724,0.065-3.026V389.499L342.064,389.499z"/>
<path fill="#FFFFFF" d="M358.729,392.743c0-2.158,0-2.562-0.019-3.01c-0.033-0.486-0.183-0.652-0.502-0.755
	c-0.166-0.052-0.351-0.067-0.533-0.067c-0.149,0-0.233-0.031-0.233-0.166c0-0.084,0.115-0.119,0.352-0.119
	c0.551,0,1.555,0.035,1.971,0.035c0.369,0,1.324-0.035,1.891-0.035c0.187,0,0.304,0.035,0.304,0.119
	c0,0.135-0.084,0.166-0.233,0.166c-0.152,0-0.269,0.016-0.438,0.051c-0.4,0.067-0.517,0.268-0.552,0.771
	c-0.033,0.448-0.033,0.852-0.033,3.01v2.508c0,1.371,0,2.51,0.068,3.111c0.051,0.383,0.148,0.604,0.584,0.666
	c0.201,0.035,0.537,0.051,0.754,0.051c0.166,0,0.234,0.084,0.234,0.152c0,0.1-0.119,0.148-0.285,0.148
	c-0.969,0-1.975-0.049-2.375-0.049c-0.334,0-1.338,0.049-1.924,0.049c-0.184,0-0.285-0.049-0.285-0.148
	c0-0.068,0.053-0.152,0.234-0.152c0.219,0,0.385-0.016,0.521-0.051c0.301-0.062,0.383-0.268,0.434-0.682
	c0.066-0.586,0.066-1.725,0.066-3.096V392.743L358.729,392.743z"/>
<path fill="#FFFFFF" d="M371.794,393.997c0-2.424,1.707-5.568,6.17-5.568c3.711,0,6.021,2.056,6.021,5.318
	c0,3.26-2.376,5.819-6.172,5.819C373.532,399.565,371.794,396.521,371.794,393.997 M381.792,394.264
	c0-3.146-1.888-5.083-4.264-5.083c-1.639,0-3.562,0.87-3.562,4.379c0,2.929,1.672,5.233,4.449,5.233
	C379.453,398.793,381.792,398.312,381.792,394.264"/>
<path fill="#FFFFFF" d="M395.681,397.443c0.033,1.101,0.22,1.437,0.5,1.538c0.25,0.081,0.535,0.098,0.771,0.098
	c0.168,0,0.25,0.068,0.25,0.152c0,0.116-0.134,0.148-0.335,0.148c-0.952,0-1.64-0.049-1.905-0.049c-0.134,0-0.838,0.049-1.588,0.049
	c-0.201,0-0.334-0.016-0.334-0.148c0-0.084,0.099-0.152,0.23-0.152c0.203,0,0.471-0.017,0.671-0.068
	c0.386-0.098,0.435-0.483,0.454-1.721l0.132-8.427c0-0.284,0.099-0.487,0.25-0.487c0.185,0,0.387,0.217,0.636,0.471
	c0.185,0.182,2.39,2.441,4.532,4.531c1.005,0.988,2.959,2.992,3.178,3.19h0.066l-0.149-6.319c-0.019-0.869-0.152-1.119-0.504-1.254
	c-0.216-0.084-0.568-0.084-0.77-0.084c-0.184,0-0.232-0.064-0.232-0.15c0-0.117,0.15-0.135,0.368-0.135
	c0.771,0,1.555,0.035,1.871,0.035c0.168,0,0.721-0.035,1.438-0.035c0.203,0,0.336,0.018,0.336,0.135c0,0.086-0.085,0.15-0.251,0.15
	c-0.148,0-0.267,0-0.451,0.051c-0.4,0.117-0.518,0.367-0.534,1.17l-0.168,8.963c0,0.318-0.114,0.455-0.232,0.455
	c-0.25,0-0.452-0.153-0.604-0.303c-0.922-0.854-2.76-2.609-4.299-4.097c-1.604-1.54-3.16-3.262-3.442-3.51h-0.053L395.681,397.443z"
	/>
<path fill="#FFFFFF" d="M418.46,335.713v0.852h-2.034v5.779h-1.001v-5.779h-2.014v-0.852H418.46z M424.873,342.344l-0.267-3.995
	c-0.03-0.517,0-1.149-0.015-1.802h-0.052c-0.166,0.617-0.364,1.318-0.567,1.897l-1.382,3.82h-0.768l-1.35-3.916
	c-0.167-0.535-0.333-1.185-0.482-1.802h-0.051c-0.019,0.636,0,1.201-0.033,1.802l-0.25,3.995h-0.966l0.517-6.631h1.314l1.301,3.6
	c0.168,0.5,0.301,1.053,0.469,1.667h0.031c0.148-0.614,0.301-1.198,0.469-1.683l1.297-3.584h1.3l0.5,6.631H424.873z"/>
<linearGradient id="SVGID_1_" gradientUnits="userSpaceOnUse" x1="243.5967" y1="85.1372" x2="243.5967" y2="-224.8071" gradientTransform="matrix(1 0 0 -1 0 94.333)">
	<stop  offset="0" style="stop-color:#3B6E8E"/>
	<stop  offset="0.1511" style="stop-color:#3F7190"/>
	<stop  offset="0.2947" style="stop-color:#4A7997"/>
	<stop  offset="0.4352" style="stop-color:#5D87A2"/>
	<stop  offset="0.5739" style="stop-color:#789BB1"/>
	<stop  offset="0.7112" style="stop-color:#9BB5C5"/>
	<stop  offset="0.8475" style="stop-color:#C6D5DE"/>
	<stop  offset="0.9807" style="stop-color:#F7F9FA"/>
	<stop  offset="1" style="stop-color:#FFFFFF"/>
</linearGradient>
<rect x="80.154" y="9.196" fill="url(#SVGID_1_)" width="326.886" height="309.944"/>
<g opacity="0.3">
	<g>
		<g>
			<defs>
				<rect id="SVGID_2_" x="80.405" y="9.593" width="307.814" height="263.509"/>
			</defs>
			<clipPath id="SVGID_3_">
				<use xlink:href="#SVGID_2_"  overflow="visible"/>
			</clipPath>
			<path clip-path="url(#SVGID_3_)" fill="#FFFFFF" d="M388.219,273.117c-52.085,0.167-107.719-34.306-181.842-90.847
				C149.738,139.067,96.224,69.435,80.405,48.082V9.585h37.071C190.202,200.319,388.219,273.117,388.219,273.117"/>
		</g>
	</g>
</g>
<g opacity="0.3">
	<g>
		<g>
			<defs>
				<rect id="SVGID_4_" x="80.405" y="78.143" width="166.305" height="146.459"/>
			</defs>
			<clipPath id="SVGID_5_">
				<use xlink:href="#SVGID_4_"  overflow="visible"/>
			</clipPath>
			<path clip-path="url(#SVGID_5_)" fill="#FFFFFF" d="M246.71,224.588c-95.492-38.46-147.231-88.026-166.305-108.917V78.165
				c6.667,8.847,17.173,22.792,33.792,44.838C159.643,183.292,246.71,224.588,246.71,224.588"/>
		</g>
	</g>
</g>
<g opacity="0.3">
	<g>
		<g>
			<defs>
				<rect id="SVGID_6_" x="138.857" y="9.593" width="122.998" height="145.863"/>
			</defs>
			<clipPath id="SVGID_7_">
				<use xlink:href="#SVGID_6_"  overflow="visible"/>
			</clipPath>
			<path clip-path="url(#SVGID_7_)" fill="#FFFFFF" d="M261.854,155.452c0,0-48.396-10.374-122.998-145.87h32.506
				C182.244,38.962,209.795,102.73,261.854,155.452"/>
		</g>
	</g>
</g>
<path fill="#0C1A38" d="M91.721,321.46c0,0-5.169-0.296,0-3.743c5.171-3.444,35.655-8.118,39.107-9.844
	c3.451-1.725,6.04-1.725,8.619-3.45c2.59-1.722,1.733-4.311,5.182-5.177c3.443-0.859,9.479-3.45,9.479-3.45h10.344l6.9-19.822
	l16.376-4.31l9.49-150.886l-4.313-2.582v-5.18l4.313-1.718l1.722-34.481l-5.175-2.592v-4.31c0,0,6.324-2.876,21.849-2.876
	c15.509,0,21.261,1.146,21.261,1.146v6.04l-4.309,2.592l2.932,34.666l4.354,1.147l0.377,4.495l-4.051,2.247l11.043,129.873
	l25.002,3.448l8.723,34.491c0,0,46.147,9.979,51.131,9.979c10.35,4.31,27.44,13.716,27.44,13.716l16.856,1.063
	c0,0,24.561,3.192,33.176,5.773c8.622,2.585-1.391,3.531-1.391,3.531s-25.575,2.17-42.823-0.423
	c-17.24-2.581-89.288,3.779-91.88,3.779c-2.587,0-26.194,0.015-26.194,0.015s-23.604-0.015-26.193-0.015
	c-2.586,0-17.464,1.248-21.263-5.526c-1.338-2.373-14.658,4.317-14.658,4.317l-21.164-0.254l-26.254-1.472
	c0,0,1.718-0.866-6.039,0.859c-7.757,1.718-24.145-1.704-24.145-1.704L91.721,321.46z"/>
<path fill="#FFFFFF" d="M200.577,75.267c0,0,6.459-4.921,14.228-4.143l0.511,37.761c0,0-8.084-0.942-16.29,2.071L200.577,75.267z"/>
<path fill="#FFFFFF" d="M193.851,117.422c0,0,2.848-2.33,8.02-3.882c5.169-1.551,15.26-3.363,15.26-3.363s-12.155-1.81-23.279,3.363
	V117.422z"/>
<path fill="#FFFFFF" d="M198.769,121.302l-7.974,152.331c0,0,2.721-1.296,7.821-6.407c1.982-1.987,4.019-7.524,6.859-9.355
	c3.545-2.292,7.273-1.456,12.428-3.629l-3.615-135.531C214.288,118.717,205.485,118.201,198.769,121.302"/>
<path fill="#FFFFFF" d="M230.792,160.759h-5.087v-10.167c0,0,0.45-2.52,2.679-2.52c2.233,0,2.408,2.52,2.408,2.52V160.759z"/>
<path fill="#0C1A38" d="M262.861,147.112c0,0,28.568-6.349,47.606,15.872c0,0,18.616-11.402,42.856,1.586
	c0,0-29.177-11.342-44.761,9.451C302.344,149.813,262.861,147.112,262.861,147.112"/>
<path fill="#0C1A38" d="M345.678,188.982c0,0,15.529-3.45,25.871,8.628c0,0,10.113-6.195,23.295,0.855
	c0,0-15.859-6.156-24.332,5.144C367.132,190.453,345.678,188.982,345.678,188.982"/>
<path fill="#FFFFFF" d="M171.889,278.446l-5.499,17.881c0,0,6.531-3.439,7.562-5.847c1.041-2.405,2.069-7.218,2.069-7.218
	l5.837-7.568L171.889,278.446z"/>
<polygon fill="#0C1A38" points="215.878,68.591 236.875,68.186 226.655,59.585 215.878,50.565 205.097,59.585 193.765,69.923 "/>
<path fill="#FFFFFF" d="M215.878,66.188l-0.104-12.85l-7.381,6.087l-12.438,9.963C201.636,67.121,209.149,65.199,215.878,66.188"/>
<polyline fill="#FFFFFF" points="212.99,103.508 222.118,103.708 221.817,76.247 214.85,75.646 "/>
<polygon fill="#FFFFFF" points="223.628,76.505 224.105,103.712 232.422,104.691 230.644,77.874 "/>
<polygon fill="#0C1A38" points="206.823,76.559 202.529,77.644 202.082,105.649 203.215,105.051 203.734,78.084 "/>
<polygon fill="#0C1A38" points="215.814,75.543 208.811,76.076 208.572,104.208 209.5,103.975 209.728,76.803 "/>
<defs>
	<filter id="Adobe_OpacityMaskFilter" filterUnits="userSpaceOnUse" x="225.917" y="48.235" width="182.697" height="95.514">
		<feColorMatrix  type="matrix" values="1 0 0 0 0  0 1 0 0 0  0 0 1 0 0  0 0 0 1 0"/>
	</filter>
</defs>
<mask maskUnits="userSpaceOnUse" x="225.917" y="48.235" width="182.697" height="95.514" id="SVGID_8_">
	<g filter="url(#Adobe_OpacityMaskFilter)">
		<rect x="225.917" y="48.235" width="182.693" height="95.514"/>
		<g enable-background="new    ">
			<g>
				<g>
					<g>
						<defs>
							<rect id="SVGID_9_" x="225.917" y="48.249" width="182.697" height="95.5"/>
						</defs>
						<clipPath id="SVGID_10_">
							<use xlink:href="#SVGID_9_"  overflow="visible"/>
						</clipPath>
					</g>
					<g>
						<defs>
							<rect id="SVGID_11_" x="225.917" y="48.249" width="182.697" height="95.5"/>
						</defs>
						<defs>
							<polygon id="SVGID_12_" points="225.917,97.881 502.803,167.425 502.803,29.527 227.858,84.134 							"/>
						</defs>
						<clipPath id="SVGID_13_">
							<use xlink:href="#SVGID_11_"  overflow="visible"/>
						</clipPath>
						<clipPath id="SVGID_14_" clip-path="url(#SVGID_13_)">
							<use xlink:href="#SVGID_12_"  overflow="visible"/>
						</clipPath>
						
							<linearGradient id="SVGID_15_" gradientUnits="userSpaceOnUse" x1="-455.0396" y1="-2881.6875" x2="-451.3113" y2="-2881.6875" gradientTransform="matrix(83.1588 0 0 83.1588 38021.0625 239736.1406)">
							<stop  offset="0" style="stop-color:#FFFFFF"/>
							<stop  offset="1" style="stop-color:#1D1D1B"/>
						</linearGradient>
						<rect x="225.917" y="29.527" clip-path="url(#SVGID_14_)" fill="url(#SVGID_15_)" width="276.886" height="137.898"/>
					</g>
				</g>
			</g>
		</g>
	</g>
</mask>
<g mask="url(#SVGID_8_)">
	<g>
		<g>
			<defs>
				<rect id="SVGID_16_" x="225.917" y="48.249" width="182.697" height="95.5"/>
			</defs>
			<clipPath id="SVGID_17_">
				<use xlink:href="#SVGID_16_"  overflow="visible"/>
			</clipPath>
			<polygon clip-path="url(#SVGID_17_)" fill="#FFFFFF" points="225.917,97.881 408.52,143.749 408.613,48.235 227.858,84.134 			
				"/>
		</g>
	</g>
</g>
<path fill="none" d="M1242.889-36.445"/>
<path fill="none" d="M-101.111-36.445"/>
<path fill="none" d="M1242.889-36.445"/>
<path fill="none" d="M-101.111-36.445"/>
<path fill="none" d="M1242.889-36.445"/>
<path fill="none" d="M-101.111-36.445"/>
<path fill="none" d="M1242.889-36.445"/>
<path fill="none" d="M-101.111-36.445"/>
<path fill="#010101" d="M1241.889-35.445"/>
<path fill="#010101" d="M-100.11-35.445"/>
<path fill="#010101" d="M-101.111-36.445"/>
<path fill="#010101" d="M1242.889-36.445"/>
<path fill="none" d="M-101.111-36.445"/>
<path fill="none" d="M1242.889-36.445"/>
<rect x="81.399" y="10.434" fill="none" stroke="#0C1A38" stroke-width="3" stroke-miterlimit="10" width="326.886" height="309.949"/>
</svg>
