<?xml version="1.0" encoding="utf-8"?>
<!-- Generator: Adobe Illustrator 15.0.2, SVG Export Plug-In . SVG Version: 6.00 Build 0)  -->
<!DOCTYPE svg PUBLIC "-//W3C//DTD SVG 1.1//EN" "http://www.w3.org/Graphics/SVG/1.1/DTD/svg11.dtd">
<svg version="1.1" id="Layer_1" xmlns="http://www.w3.org/2000/svg" xmlns:xlink="http://www.w3.org/1999/xlink" x="0px" y="0px"
	 width="483px" height="85.689px" viewBox="0 0 483 85.689" enable-background="new 0 0 483 85.689" xml:space="preserve">
<title>logo-horizontal-white</title>
<path fill="#999999" d="M96.37,64.13l3.9-6.53c3.304,2.87,7.479,4.544,11.85,4.75c3.91,0,5.75-1.49,5.75-3.62
	c0-5.6-20.29-1-20.29-14.47c0-5.75,5-10.79,14-10.79c4.986-0.057,9.842,1.595,13.76,4.68l-3.61,6.391
	c-2.75-2.578-6.38-4.009-10.15-4c-3.27,0-5.4,1.42-5.4,3.33c0,5,20.37,0.779,20.37,14.62c0,6.319-5.39,10.93-14.9,10.93
	C105.74,69.45,100,67.46,96.37,64.13z"/>
<path fill="#999999" d="M155,68.6v-4.33c-3.103,3.324-7.453,5.202-12,5.181c-7.53,0-11.07-4.12-11.07-10.79V34.32h9v20.79
	c0,4.761,2.48,6.32,6.31,6.32c3.059-0.051,5.931-1.485,7.81-3.899V34.32h9V68.6H155z"/>
<path fill="#999999" d="M180.63,64.2V81.65h-9V34.32h9v4.33c2.523-3.28,6.432-5.195,10.57-5.18c8.8,0,15.19,6.53,15.19,18
	s-6.39,18-15.19,18C187.043,69.477,183.126,67.524,180.63,64.2z M197.09,51.42c0-5.89-3.55-9.93-8.73-9.93
	c-3.035,0.059-5.879,1.494-7.73,3.899v12.07c1.844,2.428,4.683,3.896,7.73,4C193.54,61.43,197.09,57.38,197.09,51.42z"/>
<path fill="#999999" d="M210.05,51.42c0-9.93,7.38-18,17.74-18S245,41.13,245,52.281V54.4h-25.52c0.64,4.19,4.05,7.67,9.87,7.67
	c2.91,0,6.88-1.21,9.08-3.34l4,6c-3.41,3.13-8.8,4.761-14.13,4.761C217.92,69.45,210.05,62.42,210.05,51.42z M227.79,40.85
	c-5.61,0-8,3.9-8.38,7.311h16.89C236,44.9,233.75,40.85,227.79,40.85L227.79,40.85z"/>
<path fill="#999999" d="M250.33,68.6V34.32h9v4.61c2.703-3.288,6.677-5.273,10.93-5.46v8.8c-0.82-0.158-1.654-0.229-2.49-0.21
	c-3,0-7,1.7-8.439,3.9V68.6H250.33z"/>
<path fill="#999999" d="M316.76,68.6V47c0-3.19-1.42-5.46-5.109-5.46c-2.861,0.145-5.487,1.626-7.09,4V68.6h-9.09V47
	c0-3.19-1.41-5.46-5.101-5.46c-3.13,0-5.75,2.13-7.101,4V68.6h-9V34.32h9v4.4c2.837-3.243,6.903-5.147,11.211-5.25
	c5,0,8.299,2.34,9.51,6.17c2.717-3.817,7.094-6.11,11.779-6.17c6.32,0,10.08,3.34,10.08,10.36V68.6H316.76z"/>
<path fill="#999999" d="M331.4,51.42c0-9.72,6.81-18,18.1-18s18.16,8.229,18.16,18c0,9.77-6.811,18-18.16,18
	S331.4,61.15,331.4,51.42z M358.3,51.42c0-5.32-3.13-9.93-8.8-9.93s-8.73,4.609-8.73,9.93s3.121,10,8.73,10S358.3,56.82,358.3,51.42
	z"/>
<path fill="#999999" d="M396.4,68.6V47.88c0-4.76-2.48-6.39-6.32-6.39c-3.077,0.062-5.954,1.537-7.801,4V68.6h-9V34.32h9v4.4
	c3.072-3.377,7.436-5.286,12-5.25c7.591,0,11.211,4.26,11.211,10.93v24.2H396.4z"/>
<path fill="#999999" d="M410.92,51.42c0-9.93,7.38-18,17.74-18c10.359,0,17.17,7.66,17.17,18.81v2.17h-25.47
	c0.64,4.19,4,7.67,9.859,7.67c2.91,0,6.891-1.21,9.09-3.34l4,6c-3.409,3.13-8.8,4.761-14.119,4.761
	C418.8,69.45,410.92,62.42,410.92,51.42z M428.66,40.85c-5.601,0-8,3.9-8.37,7.311h16.89C436.89,44.9,434.62,40.85,428.66,40.85z"/>
<path fill="#999999" d="M450.43,77.4l4-6.46c2.49,3,6.67,4.181,10.29,4.181c5.82,0,9.23-4,9.23-8.79v-3.55
	c-3.104,3.345-7.467,5.238-12.03,5.22c-7.52,0-11.07-4.12-11.07-10.79V34.32h9V53.62c0,4.76,2.48,6.319,6.311,6.319
	c3.076-0.052,5.962-1.502,7.84-3.939V34.32h9v32c0,10.29-7.31,16.181-18.24,16.181C459.509,82.681,454.386,80.858,450.43,77.4z"/>
<polygon fill="#FFFFFF" fill-opacity="0" points="59.37,0 29.68,17.14 29.68,51.41 0,68.55 29.68,85.69 59.36,68.55 59.36,34.27 
	89.05,17.14 "/>
<g>
	<defs>
		<path id="SVGID_1_" d="M60.11,0.43c-0.464-0.24-1.016-0.24-1.48,0L30.42,16.71c-0.441,0.284-0.717,0.766-0.74,1.29v32.55
			c-0.031,0.522-0.305,1-0.74,1.29L0.75,68.12c-0.237,0.073-0.371,0.325-0.297,0.562c0.044,0.142,0.155,0.253,0.297,0.297
			l28.19,16.28c0.466,0.23,1.014,0.23,1.48,0L58.62,69c0.436-0.289,0.71-0.768,0.74-1.29V35.13c0.026-0.521,0.302-0.997,0.74-1.28
			l28.2-16.28c0.238-0.073,0.371-0.325,0.297-0.562c-0.043-0.142-0.155-0.253-0.297-0.297L60.11,0.43z"/>
	</defs>
	<clipPath id="SVGID_2_">
		<use xlink:href="#SVGID_1_"  overflow="visible"/>
	</clipPath>
	<g clip-path="url(#SVGID_2_)">
		<polygon fill="#999999" points="59.36,0 29.68,17.14 59.36,34.27 89.05,17.14 		"/>
		<polygon fill="#999999" points="29.68,51.41 0,68.55 29.68,85.69 59.36,68.55 		"/>
		<polygon opacity="0.33" fill="#999999" enable-background="new    " points="29.68,17.14 59.36,34.27 59.36,68.55 29.68,51.41 		
			"/>
	</g>
</g>
</svg>
